<?xml version="1.0" encoding="UTF-8" standalone="no"?>
<svg
   width="100"
   height="50"
   version="1.1"
   id="svg2458"
   sodipodi:docname="BULBOFF.svg"
   inkscape:version="1.1.1 (3bf5ae0d25, 2021-09-20, custom)"
   xmlns:inkscape="http://www.inkscape.org/namespaces/inkscape"
   xmlns:sodipodi="http://sodipodi.sourceforge.net/DTD/sodipodi-0.dtd"
   xmlns="http://www.w3.org/2000/svg"
   xmlns:svg="http://www.w3.org/2000/svg">
  <defs
     id="defs2462" />
  <sodipodi:namedview
     id="namedview2460"
     pagecolor="#ffffff"
     bordercolor="#666666"
     borderopacity="1.0"
     inkscape:pageshadow="2"
     inkscape:pageopacity="0.0"
     inkscape:pagecheckerboard="0"
     showgrid="false"
     inkscape:zoom="3.1125"
     inkscape:cx="63.293173"
     inkscape:cy="54.136546"
     inkscape:window-width="927"
     inkscape:window-height="1010"
     inkscape:window-x="1939"
     inkscape:window-y="47"
     inkscape:window-maximized="1"
     inkscape:current-layer="svg2458" />
  <path
     fill="none"
     stroke="#000000"
     stroke-width="1.92627"
     d="m 78.470664,24.454655 v 0 m -48.266104,0 -19.370937,0.08032"
     id="path2452"
     sodipodi:nodetypes="cccc" />
  <ellipse
     style="fill:#000000;fill-opacity:1;fill-rule:evenodd"
     id="path177-3-6"
     cx="13.237323"
     cy="24.539982"
     rx="3.9862022"
     ry="4.0763268" />
  <path
     id="bulb"
     d="m 32.531914,13.590581 a 2.959,2.959 0 0 0 -2.960154,2.949838 l -0.02214,15.737985 a 2.959,2.959 0 0 0 2.951842,2.957156 l 9.635991,0.01356 0.03046,-21.644979 z m 7.089413,2.553979 -0.0233,16.557983 -2.407997,-0.0034 0.0233,-16.557984 z m -4.951995,-0.007 -0.0233,16.557983 -2.140998,-0.003 a 0.421,0.421 0 0 1 -0.409422,-0.410577 l 0.02215,-15.741984 a 0.421,0.421 0 0 1 0.410577,-0.409423 z m 51.6273,8.351652 A 19.64,19.64 0 0 0 55.13905,8.5343858 l -1.407508,1.0710205 c 0,0 -1.048406,0.9985267 -2.317803,1.9907417 a 8.756,8.756 0 0 1 -3.08454,1.802661 l -4.367996,-0.0061 -0.03103,22.051979 4.367996,0.0061 a 8.852,8.852 0 0 1 3.079456,1.810335 c 1.266601,0.994783 2.308183,2.003249 2.312183,2.003255 l 1.357513,1.057911 a 19.643,19.643 0 0 0 31.25231,-15.833041 z m -30.88015,12.876562 -0.516365,-0.451727 c -0.456421,-0.411643 -1.157555,-1.02763 -1.95168,-1.649748 -1.447497,-1.069038 -2.880831,-2.254056 -4.646689,-2.356541 -0.723999,-10e-4 -1.338999,-0.0019 -1.824998,-0.0026 l 0.01013,-7.199993 12.390988,0.01744 a 5.446,5.446 0 1 0 0.0036,-2.542998 l -12.390988,-0.01744 0.01016,-7.221993 1.824998,0.0026 c 1.76612,-0.09748 3.201785,-1.279463 4.653282,-2.342422 0.420463,-0.328408 0.814922,-0.654854 1.164338,-0.950362 l -9e-6,0.007 1.311597,-1.134156 a 17.115,17.115 0 1 1 -0.03636,25.842975 z m 5.842173,-12.910793 a 2.9,2.9 0 1 1 2.895916,2.904078 2.9,2.9 0 0 1 -2.895916,-2.904078 z"
     fill="#2c3233"
     style="fill:#000000;fill-opacity:1" />
</svg>
