<?xml version="1.0" encoding="UTF-8" standalone="no"?>
<svg
   width="100"
   height="50"
   version="1.1"
   id="svg3847"
   sodipodi:docname="NAND.svg"
   inkscape:version="1.1.1 (3bf5ae0d25, 2021-09-20, custom)"
   xmlns:inkscape="http://www.inkscape.org/namespaces/inkscape"
   xmlns:sodipodi="http://sodipodi.sourceforge.net/DTD/sodipodi-0.dtd"
   xmlns="http://www.w3.org/2000/svg"
   xmlns:svg="http://www.w3.org/2000/svg">
  <defs
     id="defs3851" />
  <sodipodi:namedview
     id="namedview3849"
     pagecolor="#ffffff"
     bordercolor="#666666"
     borderopacity="1.0"
     inkscape:pageshadow="2"
     inkscape:pageopacity="0.0"
     inkscape:pagecheckerboard="0"
     showgrid="false"
     inkscape:zoom="12.45"
     inkscape:cx="88.795181"
     inkscape:cy="25.02008"
     inkscape:window-width="928"
     inkscape:window-height="1010"
     inkscape:window-x="2889"
     inkscape:window-y="47"
     inkscape:window-maximized="1"
     inkscape:current-layer="svg3847" />
  <path
     fill="none"
     stroke="#000000"
     stroke-width="2"
     d="m 79,25 16.778955,0.003 M 31.798095,15 8.0669357,15.034317 M 32,35 9.1411152,35.126669"
     id="path3841"
     sodipodi:nodetypes="cccccc" />
  <path
     d="M30 5V45H50.47619c11.267908 0 20-9.000045 20-20s-8.732091-20-20-20H30zm2.857143 2.857143H50.47619c9.760663 0 16.666667 7.639955 16.666667 17.142857 0 9.502902-7.382195 17.142857-17.142857 17.142857H32.857143V7.857143z"
     id="path3843" />
  <path
     fill="none"
     stroke="#000"
     stroke-width="3"
     d="M79 25a4 4 0 1 1-8 0 4 4 0 1 1 8 0z"
     id="path3845" />
  <ellipse
     style="fill:#000000;fill-opacity:1;fill-rule:evenodd"
     id="path177-3-6"
     cx="12.160968"
     cy="35.013481"
     rx="3.9862022"
     ry="4.0763268" />
  <ellipse
     style="fill:#000000;fill-opacity:1;fill-rule:evenodd"
     id="path177-3-6-1"
     cx="11.562363"
     cy="14.937178"
     rx="3.9862022"
     ry="4.0763268" />
  <ellipse
     style="fill:#000000;fill-opacity:1;fill-rule:evenodd"
     id="path177-3-6-2"
     cx="93.267349"
     cy="25.281757"
     rx="3.9862022"
     ry="4.0763268" />
</svg>
