<?xml version="1.0" encoding="UTF-8" standalone="no"?>
<svg
   width="100"
   height="50"
   version="1.1"
   id="svg69"
   sodipodi:docname="SWITCHOFF.svg"
   inkscape:version="1.1.1 (3bf5ae0d25, 2021-09-20, custom)"
   xmlns:inkscape="http://www.inkscape.org/namespaces/inkscape"
   xmlns:sodipodi="http://sodipodi.sourceforge.net/DTD/sodipodi-0.dtd"
   xmlns="http://www.w3.org/2000/svg"
   xmlns:svg="http://www.w3.org/2000/svg">
  <defs
     id="defs73" />
  <sodipodi:namedview
     id="namedview71"
     pagecolor="#ffffff"
     bordercolor="#666666"
     borderopacity="1.0"
     inkscape:pageshadow="2"
     inkscape:pageopacity="0.0"
     inkscape:pagecheckerboard="0"
     showgrid="false"
     inkscape:zoom="3.975"
     inkscape:cx="-13.207547"
     inkscape:cy="-5.9119497"
     inkscape:window-width="1878"
     inkscape:window-height="1010"
     inkscape:window-x="1939"
     inkscape:window-y="47"
     inkscape:window-maximized="1"
     inkscape:current-layer="svg69" />
  <path
     d="m 72.524118,6.2034702 c -0.01387,-0.00601 -0.02774,-0.010412 -0.04162,-0.016365 C 70.186636,5.1602195 67.671589,4.5872473 65.033078,4.5872473 H 20.641733 c -2.638511,0 -5.153558,0.5729722 -7.449423,1.5998576 -0.01387,0.00601 -0.02774,0.010412 -0.04162,0.016365 C 6.1507332,9.3540732 1.2205193,16.780387 1.2205193,25.422593 c 0,11.489208 8.7118019,20.835351 19.4212137,20.835351 h 44.391345 c 2.638511,0 5.153558,-0.572972 7.449423,-1.599858 0.01387,-0.006 0.02775,-0.01041 0.04023,-0.01637 7.001347,-3.150603 11.931561,-10.576919 11.931561,-19.219124 0,-8.642206 -4.930214,-16.0685194 -11.930174,-19.2191218 z m 7.60618,11.7422078 c 0.984933,2.278495 1.549535,4.805525 1.549535,7.476915 0,2.671389 -0.564602,5.19842 -1.549535,7.476914 -0.685292,0.08929 -1.224924,0.692031 -1.224924,1.452521 0,0.236632 0.06242,0.452425 0.153982,0.650362 -0.582636,0.979261 -1.249893,1.891551 -1.993449,2.727942 -0.248314,-0.24407 -0.571538,-0.401824 -0.934992,-0.401824 -0.765751,0 -1.38723,0.666731 -1.38723,1.488239 0,0.325925 0.117915,0.610178 0.282995,0.855737 -2.786944,2.254683 -6.241146,3.608982 -9.993602,3.608982 0,-0.82151 -0.621478,-1.488241 -1.387229,-1.488241 -0.765751,0 -1.38723,0.666731 -1.38723,1.488241 h -5.548918 c 0,-0.82151 -0.621479,-1.488241 -1.38723,-1.488241 -0.76575,0 -1.387229,0.666731 -1.387229,1.488241 h -5.548918 c 0,-0.82151 -0.621479,-1.488241 -1.38723,-1.488241 -0.765751,0 -1.387229,0.666731 -1.387229,1.488241 h -5.548919 c 0,-0.82151 -0.621478,-1.488241 -1.387229,-1.488241 -0.765751,0 -1.38723,0.666731 -1.38723,1.488241 h -5.548918 c 0,-0.82151 -0.621479,-1.488241 -1.387229,-1.488241 -0.765751,0 -1.38723,0.666731 -1.38723,1.488241 h -5.548918 c 0,-0.82151 -0.621479,-1.488241 -1.38723,-1.488241 -0.76575,0 -1.387229,0.666731 -1.387229,1.488241 -3.752456,0 -7.206658,-1.354299 -9.993602,-3.608982 0.16508,-0.245559 0.282995,-0.529812 0.282995,-0.855737 0,-0.821508 -0.621479,-1.488239 -1.3872298,-1.488239 -0.363454,0 -0.686678,0.157754 -0.933605,0.401824 -2.852144,-3.207156 -4.615313,-7.536444 -4.615313,-12.307739 0,-2.67139 0.564602,-5.19842 1.549535,-7.476915 0.685292,-0.08929 1.224924,-0.692031 1.224924,-1.452521 0,-0.23663 -0.06242,-0.452425 -0.153982,-0.65036 0.582636,-0.979262 1.249894,-1.891553 1.993449,-2.727944 0.248314,0.244072 0.571538,0.401825 0.934992,0.401825 0.7657508,0 1.3872298,-0.666731 1.3872298,-1.48824 0,-0.325923 -0.117915,-0.610177 -0.282995,-0.855737 2.786944,-2.2546828 6.241146,-3.60898 9.993602,-3.60898 0,0.821508 0.621479,1.4882391 1.387229,1.4882391 0.765751,0 1.38723,-0.6667311 1.38723,-1.4882391 h 5.548918 c 0,0.821508 0.621479,1.4882391 1.38723,1.4882391 0.76575,0 1.387229,-0.6667311 1.387229,-1.4882391 h 5.548918 c 0,0.821508 0.621479,1.4882391 1.38723,1.4882391 0.765751,0 1.387229,-0.6667311 1.387229,-1.4882391 h 5.548919 c 0,0.821508 0.621478,1.4882391 1.387229,1.4882391 0.765751,0 1.38723,-0.6667311 1.38723,-1.4882391 h 5.548918 c 0,0.821508 0.621479,1.4882391 1.387229,1.4882391 0.765751,0 1.38723,-0.6667311 1.38723,-1.4882391 h 5.548918 c 0,0.821508 0.621479,1.4882391 1.38723,1.4882391 0.765751,0 1.387229,-0.6667311 1.387229,-1.4882391 3.752456,0 7.206658,1.3542972 9.993602,3.60898 -0.16508,0.24556 -0.282995,0.529814 -0.282995,0.855737 0,0.821509 0.621479,1.48824 1.38723,1.48824 0.363454,0 0.686678,-0.157753 0.933605,-0.401825 0.743555,0.836391 1.410813,1.75017 1.993449,2.727944 -0.09017,0.197935 -0.152595,0.41373 -0.152595,0.65036 0,0.76049 0.539632,1.363227 1.224924,1.452521 z"
     id="path976"
     style="stroke-width:1.43685" />
  <path
     d="m 16.785235,39.708202 c 0.253863,0.354202 0.633963,0.596784 1.082039,0.596784 0.237216,0 0.450849,-0.08036 0.646449,-0.193471 0.695002,0.114601 1.402489,0.193471 2.12801,0.193471 1.524565,0 2.988092,-0.275324 4.361449,-0.764955 0.238604,0.449449 0.67142,0.764955 1.187469,0.764955 0.765751,0 1.387229,-0.666731 1.387229,-1.488239 0,-0.166683 -0.04162,-0.318483 -0.0874,-0.468796 2.717583,-1.663851 4.859465,-4.280176 6.031674,-7.427802 0.251089,0.279789 0.60067,0.455401 0.991869,0.455401 0.765751,0 1.38723,-0.666731 1.38723,-1.488239 0,-0.821508 -0.621479,-1.488239 -1.38723,-1.488239 -0.104042,0 -0.195599,0.04018 -0.292705,0.06399 0.19005,-0.982237 0.292705,-1.998705 0.292705,-3.040473 0,-1.041767 -0.102655,-2.058234 -0.292705,-3.040473 0.09711,0.02381 0.188663,0.06399 0.292705,0.06399 0.765751,0 1.38723,-0.666731 1.38723,-1.488239 0,-0.82151 -0.621479,-1.488241 -1.38723,-1.488241 -0.391199,0 -0.74078,0.175614 -0.993256,0.455402 -0.455011,-1.223332 -1.061231,-2.361836 -1.786752,-3.402114 0,-0.01041 0.0055,-0.01934 0.0055,-0.02977 0,-0.738166 -0.5105,-1.324533 -1.168047,-1.440615 -0.907248,-1.000097 -1.944896,-1.860299 -3.082424,-2.555308 0.04717,-0.150311 0.08878,-0.302113 0.08878,-0.468796 0,-0.821507 -0.621478,-1.488239 -1.387229,-1.488239 -0.516049,0 -0.948865,0.315508 -1.187469,0.764956 -1.373357,-0.489631 -2.836884,-0.764956 -4.361449,-0.764956 -0.725521,0 -1.433008,0.07888 -2.12801,0.193472 -0.1956,-0.113106 -0.409233,-0.193472 -0.646449,-0.193472 -0.448076,0 -0.828176,0.242584 -1.082039,0.596784 -5.776424,1.799282 -10.0157978,7.517098 -10.0157978,14.28561 0,6.768514 4.2393738,12.486328 10.0157978,14.285611 z m 3.856498,-26.191524 c 6.119069,0 11.097836,5.341291 11.097836,11.905915 0,6.564624 -4.978767,11.905915 -11.097836,11.905915 -6.11907,0 -11.0978368,-5.341291 -11.0978368,-11.905915 0,-6.564624 4.9787668,-11.905915 11.0978368,-11.905915 z"
     id="path980"
     style="stroke-width:1.43685" />
  <ellipse
     cx="34.51403"
     cy="12.02844"
     id="circle982"
     rx="1.3872296"
     ry="1.4882393"
     style="stroke-width:1.43685" />
  <ellipse
     cx="42.837406"
     cy="12.02844"
     id="circle984"
     rx="1.3872296"
     ry="1.4882393"
     style="stroke-width:1.43685" />
  <ellipse
     cx="51.160786"
     cy="12.02844"
     id="circle986"
     rx="1.3872296"
     ry="1.4882393"
     style="stroke-width:1.43685" />
  <ellipse
     cx="59.484158"
     cy="12.02844"
     id="circle988"
     rx="1.3872296"
     ry="1.4882393"
     style="stroke-width:1.43685" />
  <ellipse
     cx="67.807533"
     cy="12.02844"
     id="circle990"
     rx="1.3872296"
     ry="1.4882393"
     style="stroke-width:1.43685" />
  <ellipse
     cx="5.3822079"
     cy="25.422596"
     id="circle992"
     rx="1.3872296"
     ry="1.4882393"
     style="stroke-width:1.43685" />
  <ellipse
     cx="38.675716"
     cy="16.493155"
     id="circle994"
     rx="1.3872296"
     ry="1.4882393"
     style="stroke-width:1.43685" />
  <ellipse
     cx="46.999096"
     cy="16.493155"
     id="circle996"
     rx="1.3872296"
     ry="1.4882393"
     style="stroke-width:1.43685" />
  <ellipse
     cx="38.675716"
     cy="25.422596"
     id="circle998"
     rx="1.3872296"
     ry="1.4882393"
     style="stroke-width:1.43685" />
  <ellipse
     cx="46.999096"
     cy="25.422596"
     id="circle1000"
     rx="1.3872296"
     ry="1.4882393"
     style="stroke-width:1.43685" />
  <ellipse
     cx="42.837406"
     cy="20.957878"
     id="circle1002"
     rx="1.3872296"
     ry="1.4882393"
     style="stroke-width:1.43685" />
  <ellipse
     cx="51.160786"
     cy="20.957878"
     id="circle1004"
     rx="1.3872296"
     ry="1.4882393"
     style="stroke-width:1.43685" />
  <ellipse
     cx="42.837406"
     cy="29.887312"
     id="circle1006"
     rx="1.3872296"
     ry="1.4882393"
     style="stroke-width:1.43685" />
  <ellipse
     cx="51.160786"
     cy="29.887312"
     id="circle1008"
     rx="1.3872296"
     ry="1.4882393"
     style="stroke-width:1.43685" />
  <ellipse
     cx="55.322472"
     cy="16.493155"
     id="circle1010"
     rx="1.3872296"
     ry="1.4882393"
     style="stroke-width:1.43685" />
  <ellipse
     cx="63.645847"
     cy="16.493155"
     id="circle1012"
     rx="1.3872296"
     ry="1.4882393"
     style="stroke-width:1.43685" />
  <ellipse
     cx="55.322472"
     cy="25.422596"
     id="circle1014"
     rx="1.3872296"
     ry="1.4882393"
     style="stroke-width:1.43685" />
  <ellipse
     cx="63.645847"
     cy="25.422596"
     id="circle1016"
     rx="1.3872296"
     ry="1.4882393"
     style="stroke-width:1.43685" />
  <ellipse
     cx="59.484158"
     cy="20.957878"
     id="circle1018"
     rx="1.3872296"
     ry="1.4882393"
     style="stroke-width:1.43685" />
  <ellipse
     cx="67.807533"
     cy="20.957878"
     id="circle1020"
     rx="1.3872296"
     ry="1.4882393"
     style="stroke-width:1.43685" />
  <ellipse
     cx="59.484158"
     cy="29.887312"
     id="circle1022"
     rx="1.3872296"
     ry="1.4882393"
     style="stroke-width:1.43685" />
  <ellipse
     cx="67.807533"
     cy="29.887312"
     id="circle1024"
     rx="1.3872296"
     ry="1.4882393"
     style="stroke-width:1.43685" />
  <ellipse
     cx="71.969223"
     cy="16.493155"
     id="circle1026"
     rx="1.3872296"
     ry="1.4882393"
     style="stroke-width:1.43685" />
  <ellipse
     cx="71.969223"
     cy="25.422596"
     id="circle1028"
     rx="1.3872296"
     ry="1.4882393"
     style="stroke-width:1.43685" />
  <ellipse
     cx="80.292603"
     cy="25.422596"
     id="circle1030"
     rx="1.3872296"
     ry="1.4882393"
     style="stroke-width:1.43685" />
  <ellipse
     cx="38.675716"
     cy="34.352032"
     id="circle1032"
     rx="1.3872296"
     ry="1.4882393"
     style="stroke-width:1.43685" />
  <ellipse
     cx="46.999096"
     cy="34.352032"
     id="circle1034"
     rx="1.3872296"
     ry="1.4882393"
     style="stroke-width:1.43685" />
  <ellipse
     cx="55.322472"
     cy="34.352032"
     id="circle1036"
     rx="1.3872296"
     ry="1.4882393"
     style="stroke-width:1.43685" />
  <ellipse
     cx="63.645847"
     cy="34.352032"
     id="circle1038"
     rx="1.3872296"
     ry="1.4882393"
     style="stroke-width:1.43685" />
  <ellipse
     cx="71.969223"
     cy="34.352032"
     id="circle1040"
     rx="1.3872296"
     ry="1.4882393"
     style="stroke-width:1.43685" />
  <ellipse
     cx="76.130913"
     cy="20.957878"
     id="circle1042"
     rx="1.3872296"
     ry="1.4882393"
     style="stroke-width:1.43685" />
  <ellipse
     cx="76.130913"
     cy="29.887312"
     id="circle1044"
     rx="1.3872296"
     ry="1.4882393"
     style="stroke-width:1.43685" />
  <ellipse
     cx="34.51403"
     cy="38.81675"
     id="circle1046"
     rx="1.3872296"
     ry="1.4882393"
     style="stroke-width:1.43685" />
  <ellipse
     cx="42.837406"
     cy="38.81675"
     id="circle1048"
     rx="1.3872296"
     ry="1.4882393"
     style="stroke-width:1.43685" />
  <ellipse
     cx="51.160786"
     cy="38.81675"
     id="circle1050"
     rx="1.3872296"
     ry="1.4882393"
     style="stroke-width:1.43685" />
  <ellipse
     cx="59.484158"
     cy="38.81675"
     id="circle1052"
     rx="1.3872296"
     ry="1.4882393"
     style="stroke-width:1.43685" />
  <ellipse
     cx="67.807533"
     cy="38.81675"
     id="circle1054"
     rx="1.3872296"
     ry="1.4882393"
     style="stroke-width:1.43685" />
  <ellipse
     style="fill:#000000;fill-opacity:1;fill-rule:evenodd"
     id="path177-3-6-2"
     cx="87.743835"
     cy="25.429136"
     rx="3.9862022"
     ry="4.0763268" />
  <path
     style="fill:#e6e6e6;stroke:none;stroke-width:0.251572"
     d="m 18.691617,42.963218 c -2.068427,-0.234277 -4.669309,-1.183787 -6.427466,-2.346488 -1.165368,-0.770682 -1.320755,-0.974617 -1.320755,-1.733407 0,-1.138699 -0.614934,-1.738913 -1.6161079,-1.577421 -0.6755019,0.108961 -0.8749112,-0.0076 -1.5693399,-0.917585 -1.2617824,-1.653389 -2.5539886,-4.463354 -3.1000714,-6.741256 -0.7058074,-2.944168 -0.7033595,-2.958863 0.4667406,-2.80192 0.6529566,0.08758 1.0410226,0.02162 1.1781391,-0.200234 0.1287348,-0.208297 0.3721298,0.456594 0.6571454,1.79515 1.0639872,4.996939 3.7377101,8.500919 8.1903201,10.733621 l 2.470318,1.238707 2.762057,-0.06119 c 1.519131,-0.03365 3.133046,-0.176017 3.586476,-0.316369 0.649618,-0.201077 0.976346,-0.16799 1.540958,0.156053 0.667252,0.38295 0.762548,0.381091 1.385412,-0.02702 0.36788,-0.241044 0.734471,-0.76626 0.814648,-1.167143 0.09472,-0.4736 0.49951,-0.974017 1.155763,-1.428802 1.290277,-0.894161 3.051245,-3.054689 3.964762,-4.864354 0.686697,-1.360343 0.745354,-1.408601 1.59199,-1.309761 0.728642,0.08507 0.952119,-0.0089 1.306257,-0.549415 0.555909,-0.848426 0.313197,-1.826197 -0.580662,-2.339201 -0.676797,-0.388429 -0.682792,-0.415893 -0.682792,-3.127771 0,-1.504745 0.09005,-2.735901 0.200113,-2.735901 0.407894,0 1.435107,-1.252298 1.435107,-1.749571 0,-0.80832 -0.921625,-1.56767 -1.791892,-1.476384 -0.692211,0.07261 -0.819436,-0.04875 -1.61806,-1.543488 -0.476727,-0.89226 -0.866778,-1.751819 -0.866778,-1.91013 0,-0.158311 -0.896264,-1.008089 -1.991695,-1.888396 -1.376162,-1.105905 -2.034375,-1.813952 -2.129792,-2.291041 -0.07595,-0.379766 -0.420876,-0.875768 -0.766496,-1.102226 -0.576459,-0.377711 -0.694649,-0.378693 -1.429945,-0.01188 -0.65666,0.327585 -0.987993,0.349217 -1.833005,0.119672 -0.567301,-0.154104 -2.188724,-0.283409 -3.603163,-0.287342 -2.55615,-0.0071 -2.585976,-1.15e-4 -4.930656,1.155871 C 10.77027,13.810562 7.9410762,17.517061 6.9957268,22.325212 6.6637341,24.013763 6.5248493,24.346425 6.2478558,24.116541 6.0556937,23.957061 5.5255189,23.896248 5.0293173,23.97677 4.0098929,24.1422 4.0197942,24.186188 4.5305746,21.761006 5.0287071,19.395876 5.3594162,18.616048 6.2048757,17.812924 6.6992875,17.343269 6.918239,16.887537 6.918239,16.328109 c 0,-0.524064 0.2867693,-1.181422 0.8176101,-1.874198 0.7156636,-0.933979 0.9140973,-1.051461 1.591439,-0.942203 0.9971349,0.160841 1.6161079,-0.437738 1.6161079,-1.562861 0,-0.961652 0.427267,-1.341639 2.913199,-2.590835 1.752071,-0.8804266 4.152897,-1.5592699 5.514581,-1.5592699 0.696382,0 1.059539,0.1598903 1.428487,0.6289309 0.321381,0.4085693 0.746457,0.6289308 1.213205,0.6289308 0.697756,0 1.509145,-0.5506909 1.509145,-1.0242588 0,-0.1287594 1.172552,-0.2336029 2.612576,-0.2336029 2.509142,0 2.628891,0.0249 3.024666,0.6289309 0.30958,0.4724781 0.631024,0.6289308 1.292189,0.6289308 0.694639,0 0.940483,-0.132531 1.166657,-0.6289308 0.278468,-0.6111668 0.359212,-0.6289309 2.858757,-0.6289309 2.466068,0 2.589195,0.025949 2.984284,0.6289309 0.586061,0.8944381 2.051313,0.8944381 2.458845,0 0.278468,-0.6111668 0.359213,-0.6289309 2.858758,-0.6289309 2.466068,0 2.589195,0.025949 2.984284,0.6289309 0.58606,0.8944381 2.051313,0.8944381 2.458845,0 0.279437,-0.6132943 0.352876,-0.6289309 2.953822,-0.6289309 2.524749,0 2.680525,0.030243 2.915592,0.5660378 0.197985,0.4512734 0.45236,0.5660377 1.254624,0.5660377 0.802264,0 1.056639,-0.1147643 1.254624,-0.5660377 0.234903,-0.5354224 0.391555,-0.5660378 2.896319,-0.5660378 2.504765,0 2.661417,0.030615 2.89632,0.5660378 0.197985,0.4512734 0.45236,0.5660377 1.254624,0.5660377 0.818865,0 1.053144,-0.1106389 1.257861,-0.5940283 0.237382,-0.5605214 0.343809,-0.5860712 1.886793,-0.4529606 2.077235,0.1791997 4.310702,0.9439895 6.335424,2.1693943 1.387824,0.839941 1.578626,1.046615 1.506385,1.631691 -0.0455,0.368462 0.105977,0.957917 0.336606,1.3099 0.347421,0.530231 0.571919,0.622155 1.30923,0.536078 0.812921,-0.0949 0.962808,-0.0046 1.732629,1.044243 0.530594,0.722887 0.845034,1.4442 0.848961,1.947486 0.0043,0.550201 0.204136,0.955018 0.641157,1.29878 0.747947,0.588336 1.58554,2.844639 1.795271,4.836097 l 0.147403,1.399637 -0.953952,-0.111369 c -1.12803,-0.131691 -1.623642,0.358569 -1.623642,1.606104 0,1.037874 0.519506,1.448875 1.662691,1.315415 l 0.914903,-0.10681 -0.148996,1.399637 c -0.220873,2.0748 -1.094865,4.43671 -1.816777,4.909727 -0.445494,0.291899 -0.611821,0.628838 -0.611821,1.239406 0,0.566317 -0.277777,1.20232 -0.855668,1.959163 -0.773938,1.013595 -0.940031,1.110787 -1.738868,1.017527 -0.733978,-0.08569 -0.955633,0.0074 -1.311935,0.551227 -0.239562,0.365618 -0.376501,0.927585 -0.310352,1.273618 0.09504,0.497182 -0.06287,0.739228 -0.800906,1.227638 -2.417157,1.5996 -4.514085,2.370379 -7.246422,2.66361 -1.344589,0.144299 -1.572327,0.110369 -1.572327,-0.234254 0,-0.623231 -0.527115,-1.006768 -1.383648,-1.006768 -0.878569,0 -1.383648,0.385698 -1.383648,1.056604 0,0.408614 -0.270206,0.45283 -2.767296,0.45283 -2.539424,0 -2.767295,-0.0389 -2.767295,-0.472342 0,-0.693816 -0.608986,-1.082279 -1.554144,-0.991363 -0.618304,0.05947 -0.917124,0.257932 -1.162236,0.771881 -0.328169,0.688106 -0.343769,0.691824 -2.902571,0.691824 h -2.572627 l -0.284875,-0.754717 c -0.244526,-0.647826 -0.414332,-0.754717 -1.198931,-0.754717 -0.752038,0 -0.990015,0.133492 -1.342606,0.753127 l -0.428551,0.753125 -2.578616,0.0015 c -2.067829,0.0014 -2.578617,-0.06952 -2.578617,-0.357715 0,-0.594612 -0.743336,-1.150046 -1.539104,-1.150046 -0.568108,0 -0.851708,0.181467 -1.176999,0.753127 l -0.428551,0.753125 -2.578616,0.0015 c -2.067829,0.0014 -2.578617,-0.06952 -2.578617,-0.357715 0,-0.594612 -0.743335,-1.150046 -1.539104,-1.150046 -0.568108,0 -0.851708,0.181467 -1.176999,0.753127 l -0.428551,0.753125 -2.578616,0.0015 c -1.993116,0.0013 -2.578616,-0.07516 -2.578616,-0.336694 0,-0.527253 -0.85387,-1.171067 -1.553146,-1.171067 -0.583616,0 -1.264502,0.517485 -1.495788,1.136823 -0.06179,0.165474 -0.693195,0.188649 -1.781462,0.06539 z m 16.791515,-3.07757 c 0.748659,-0.748657 0.787389,-1.476762 0.114352,-2.149799 -1.023773,-1.023774 -2.515723,-0.337733 -2.515723,1.1568 0,0.569668 0.174093,0.949187 0.559122,1.218873 0.767077,0.537281 1.122697,0.493681 1.842249,-0.225874 z m 8.301887,0 c 0.713914,-0.713912 0.777773,-1.305874 0.225874,-2.093822 -0.468128,-0.668344 -1.510551,-0.737018 -2.167185,-0.142772 -0.660948,0.598151 -0.605811,1.968755 0.09906,2.462468 0.767077,0.537281 1.122697,0.493681 1.842249,-0.225874 z M 52.201258,40 c 1.435064,-1.435064 -0.554043,-3.709894 -2.055663,-2.350946 -0.950314,0.860023 -0.217147,2.854091 1.049374,2.854091 0.276729,0 0.729559,-0.226415 1.006289,-0.503145 z m 8.301887,0 c 1.435064,-1.435064 -0.554043,-3.709894 -2.055663,-2.350946 -0.950315,0.860023 -0.217147,2.854091 1.049373,2.854091 0.27673,0 0.72956,-0.226415 1.00629,-0.503145 z m 8.301886,0 c 1.018005,-1.018005 0.366272,-2.767296 -1.031013,-2.767296 -0.793366,0 -1.48471,0.787492 -1.48471,1.691198 0,0.707459 0.833248,1.579243 1.509434,1.579243 0.27673,0 0.72956,-0.226415 1.006289,-0.503145 z M 39.665726,35.558493 c 0.660948,-0.598151 0.605811,-1.968755 -0.09906,-2.462468 -0.752523,-0.527087 -1.352171,-0.492909 -1.956601,0.111522 -1.407354,1.407354 0.583036,3.683656 2.055663,2.350946 z m 8.301887,0 c 0.269816,-0.244181 0.46006,-0.761932 0.46006,-1.25206 0,-1.645101 -2.125806,-2.144431 -2.74681,-0.645198 -0.683618,1.650398 1.008357,3.054189 2.28675,1.897258 z m 8.301886,0 c 0.609583,-0.551663 0.597354,-1.897145 -0.02234,-2.457957 -0.641359,-0.58042 -1.493029,-0.421561 -2.097527,0.391245 -1.093729,1.470619 0.770375,3.287983 2.119864,2.066712 z m 8.301887,0 c 0.253034,-0.228991 0.460061,-0.757814 0.460061,-1.17516 0,-1.483167 -1.456582,-2.207134 -2.382393,-1.184123 -1.298289,1.434594 0.502269,3.644423 1.922332,2.359283 z m 8.350139,0.0375 c 0.674085,-0.674083 0.751094,-1.396078 0.224437,-2.104214 -0.946797,-1.273058 -2.579924,-0.764033 -2.579924,0.804131 0,1.407114 1.448805,2.206765 2.355487,1.300083 z M 44.010893,30.88742 c 0.554805,-0.792098 0.487444,-1.380508 -0.241497,-2.109447 -0.983318,-0.983318 -2.385748,-0.322287 -2.385748,1.124515 0,1.421802 1.83849,2.111037 2.627245,0.984932 z m 8.301887,0 c 0.576601,-0.823216 0.478589,-1.600104 -0.276838,-2.194322 -1.060342,-0.834066 -2.350407,-0.170269 -2.350407,1.20939 0,1.421802 1.83849,2.111037 2.627245,0.984932 z m 8.301887,0 c 0.837021,-1.195016 0.244372,-2.543604 -1.117812,-2.543604 -0.936213,0 -1.509434,0.591918 -1.509434,1.558672 0,1.421802 1.838491,2.111037 2.627246,0.984932 z m 8.233449,0.142772 c 0.542754,-0.491187 0.599771,-1.560569 0.118312,-2.219006 -0.456551,-0.624369 -1.87882,-0.624369 -2.335371,0 -1.148066,1.570073 0.790334,3.510175 2.217059,2.219006 z m 8.301887,0 c 0.866535,-0.784204 0.460304,-2.365778 -0.695379,-2.707309 -0.688964,-0.203605 -1.863429,0.710742 -1.863429,1.450721 0,1.418975 1.5424,2.176423 2.558808,1.256588 z M 39.865364,26.431633 c 0.671212,-1.254175 0.03894,-2.532262 -1.252715,-2.532262 -0.748397,0 -1.505731,0.759196 -1.505731,1.509434 0,0.215156 0.176232,0.642796 0.391623,0.950313 0.515014,0.735284 1.987967,0.780413 2.366823,0.07252 z m 8.417612,-0.331004 c 0.15472,-0.442627 0.15472,-0.941021 0,-1.383648 -0.195351,-0.558868 -0.417655,-0.706555 -1.156737,-0.768478 -0.718699,-0.06021 -1.000964,0.04621 -1.316171,0.496228 -0.220694,0.315085 -0.401263,0.748919 -0.401263,0.964074 0,0.215156 0.180569,0.648989 0.401263,0.964074 0.315207,0.450023 0.597472,0.556443 1.316171,0.496228 0.739082,-0.06192 0.961386,-0.20961 1.156737,-0.768478 z m 8.144697,0.515723 c 0.390558,-0.390557 0.390558,-2.024537 0,-2.415094 -0.429998,-0.429997 -1.841115,-0.37363 -2.224961,0.08888 -0.178367,0.21492 -0.324304,0.718322 -0.324304,1.118671 0,0.400349 0.145937,0.903751 0.324304,1.118671 0.383846,0.462506 1.794963,0.518873 2.224961,0.08888 z m 8.301887,0 c 0.390558,-0.390557 0.390558,-2.024537 0,-2.415094 -0.166038,-0.166038 -0.65283,-0.301887 -1.081761,-0.301887 -1.01803,0 -1.383648,0.398855 -1.383648,1.509434 0,0.498113 0.135849,1.041509 0.301887,1.207547 0.389959,0.389959 1.773562,0.389959 2.163522,0 z m 8.55282,-0.515723 c 0.495039,-1.037883 -0.04987,-2.048536 -1.162199,-2.15553 -1.099311,-0.105742 -1.554143,0.316912 -1.554143,1.444195 0,1.177388 0.401351,1.571009 1.506568,1.477553 0.6739,-0.05698 0.957019,-0.2363 1.209774,-0.766218 z M 43.785019,22.024014 c 0.713914,-0.713914 0.777773,-1.305876 0.225874,-2.093824 -0.468128,-0.668343 -1.510551,-0.737017 -2.167185,-0.142772 -0.660948,0.598151 -0.605811,1.968756 0.09906,2.462468 0.767077,0.537282 1.122697,0.49368 1.842249,-0.225872 z m 8.416239,0.114351 c 1.435064,-1.435063 -0.554043,-3.709894 -2.055663,-2.350947 -0.950314,0.860023 -0.217147,2.854091 1.049374,2.854091 0.276729,0 0.729559,-0.226415 1.006289,-0.503144 z m 8.301887,0 c 1.435064,-1.435063 -0.554043,-3.709894 -2.055663,-2.350947 -0.950315,0.860023 -0.217147,2.854091 1.049373,2.854091 0.27673,0 0.72956,-0.226415 1.00629,-0.503144 z m 8.301886,0 c 1.018005,-1.018006 0.366272,-2.767296 -1.031013,-2.767296 -0.793366,0 -1.48471,0.787492 -1.48471,1.691197 0,0.707459 0.833248,1.579243 1.509434,1.579243 0.27673,0 0.72956,-0.226415 1.006289,-0.503144 z m 8.301887,0 c 1.018005,-1.018006 0.366272,-2.767296 -1.031014,-2.767296 -0.793366,0 -1.484709,0.787492 -1.484709,1.691197 0,0.707459 0.833248,1.579243 1.509434,1.579243 0.276729,0 0.72956,-0.226415 1.006289,-0.503144 z M 39.665726,17.696858 c 0.660948,-0.59815 0.605811,-1.968755 -0.09906,-2.462467 -0.752523,-0.527088 -1.352171,-0.49291 -1.956601,0.111521 -1.407354,1.407354 0.583036,3.683654 2.055663,2.350946 z m 8.301887,0 c 0.269816,-0.244181 0.46006,-0.761931 0.46006,-1.252062 0,-1.645099 -2.125806,-2.144429 -2.74681,-0.645197 -0.683618,1.6504 1.008357,3.054189 2.28675,1.897259 z m 8.301886,0 c 0.609583,-0.551663 0.597354,-1.897144 -0.02234,-2.457957 -0.641359,-0.58042 -1.493029,-0.421561 -2.097527,0.391244 -1.093729,1.470619 0.770375,3.287984 2.119864,2.066713 z m 8.301887,0 c 0.253034,-0.228992 0.460061,-0.757813 0.460061,-1.175159 0,-1.483169 -1.456582,-2.207135 -2.382393,-1.184123 -1.298289,1.434592 0.502269,3.644421 1.922332,2.359282 z m 8.350139,0.0375 c 0.674085,-0.674085 0.751094,-1.396078 0.224437,-2.104215 -0.946797,-1.273058 -2.579924,-0.764033 -2.579924,0.804131 0,1.407116 1.448805,2.206767 2.355487,1.300084 z m -37.176322,-4.77655 c 0.518878,-0.791908 0.30329,-1.746351 -0.515668,-2.282953 -0.525301,-0.34419 -0.710979,-0.353256 -1.31676,-0.06429 -0.551097,0.262881 -0.721884,0.53536 -0.781442,1.246723 -0.09242,1.10387 0.439052,1.727617 1.472033,1.727617 0.501502,0 0.859927,-0.196847 1.141837,-0.627097 z m 8.26569,0.06798 c 0.554805,-0.792098 0.487444,-1.380508 -0.241497,-2.109447 -0.983318,-0.9833182 -2.385748,-0.322287 -2.385748,1.124515 0,1.421802 1.83849,2.111037 2.627245,0.984932 z m 8.301887,0 c 0.576601,-0.823216 0.478589,-1.600104 -0.276838,-2.194323 -1.060342,-0.8340651 -2.350407,-0.170269 -2.350407,1.209391 0,1.421802 1.83849,2.111037 2.627245,0.984932 z m 8.301887,0 c 0.837021,-1.195017 0.244372,-2.543605 -1.117812,-2.543605 -0.936213,0 -1.509434,0.591919 -1.509434,1.558673 0,1.421802 1.838491,2.111037 2.627246,0.984932 z m 8.233449,0.142771 c 0.542754,-0.491187 0.599771,-1.560568 0.118312,-2.219006 -0.456551,-0.624368 -1.87882,-0.624368 -2.335371,0 -1.148066,1.570074 0.790334,3.510175 2.217059,2.219006 z"
     id="path215" />
</svg>
