<?xml version="1.0" encoding="UTF-8" standalone="no"?>
<svg
   width="100"
   height="50"
   version="1.1"
   id="svg69"
   sodipodi:docname="AND.svg"
   inkscape:version="1.1.1 (3bf5ae0d25, 2021-09-20, custom)"
   xmlns:inkscape="http://www.inkscape.org/namespaces/inkscape"
   xmlns:sodipodi="http://sodipodi.sourceforge.net/DTD/sodipodi-0.dtd"
   xmlns="http://www.w3.org/2000/svg"
   xmlns:svg="http://www.w3.org/2000/svg">
  <defs
     id="defs73" />
  <sodipodi:namedview
     id="namedview71"
     pagecolor="#ffffff"
     bordercolor="#666666"
     borderopacity="1.0"
     inkscape:pageshadow="2"
     inkscape:pageopacity="0.0"
     inkscape:pagecheckerboard="0"
     showgrid="false"
     inkscape:zoom="15.9"
     inkscape:cx="82.044025"
     inkscape:cy="25"
     inkscape:window-width="1878"
     inkscape:window-height="1010"
     inkscape:window-x="1939"
     inkscape:window-y="47"
     inkscape:window-maximized="1"
     inkscape:current-layer="svg69" />
  <path
     fill="none"
     stroke="#000000"
     stroke-width="2"
     d="m 69.825386,24.907925 v 0 0 l 13.496002,7.17e-4 M 31,15 9.2889519,15.126936 M 32,35 10.783599,35.126984 v 0"
     id="path65"
     sodipodi:nodetypes="ccccccccc" />
  <path
     d="M30 5V45H50.47619c11.267908 0 20-9.000045 20-20s-8.732091-20-20-20H30zm2.857143 2.857143H50.47619c9.760663 0 16.666667 7.639955 16.666667 17.142857 0 9.502902-7.382195 17.142857-17.142857 17.142857H32.857143V7.857143z"
     id="path67" />
  <ellipse
     style="fill:#000000;fill-opacity:1;fill-rule:evenodd"
     id="path177"
     cx="11.49887"
     cy="15.038019"
     rx="3.9862022"
     ry="4.0763268" />
  <ellipse
     style="fill:#000000;fill-opacity:1;fill-rule:evenodd"
     id="path177-3"
     cx="11.337875"
     cy="35.043442"
     rx="3.9862022"
     ry="4.0763268" />
  <ellipse
     style="fill:#000000;fill-opacity:1;fill-rule:evenodd"
     id="path177-3-6"
     cx="80.830688"
     cy="24.657156"
     rx="3.9862022"
     ry="4.0763268" />
  <path
     id="path1905"
     d="M 9.2889519,15.126936 31,15 Z M 5,35 h 27 z"
     sodipodi:nodetypes="cccccc" />
</svg>
