<?xml version="1.0" encoding="UTF-8" standalone="no"?>
<svg
   width="100"
   height="50"
   version="1.1"
   id="svg69"
   sodipodi:docname="CLICK.svg"
   inkscape:version="1.1.1 (3bf5ae0d25, 2021-09-20, custom)"
   xmlns:inkscape="http://www.inkscape.org/namespaces/inkscape"
   xmlns:sodipodi="http://sodipodi.sourceforge.net/DTD/sodipodi-0.dtd"
   xmlns="http://www.w3.org/2000/svg"
   xmlns:svg="http://www.w3.org/2000/svg">
  <defs
     id="defs73" />
  <sodipodi:namedview
     id="namedview71"
     pagecolor="#ffffff"
     bordercolor="#666666"
     borderopacity="1.0"
     inkscape:pageshadow="2"
     inkscape:pageopacity="0.0"
     inkscape:pagecheckerboard="0"
     showgrid="false"
     inkscape:zoom="3.975"
     inkscape:cx="54.213836"
     inkscape:cy="-5.6603774"
     inkscape:window-width="1878"
     inkscape:window-height="1010"
     inkscape:window-x="1939"
     inkscape:window-y="47"
     inkscape:window-maximized="0"
     inkscape:current-layer="svg69" />
  <path
     d="m 61.814353,14.647512 c -1.595657,0 -3.051718,0.471682 -4.148002,1.244115 -1.096291,-0.772433 -2.552352,-1.244115 -4.147736,-1.244115 -1.597003,0 -3.05441,0.471892 -4.151507,1.244533 -1.09629,-0.772641 -2.55235,-1.244533 -4.148005,-1.244533 -0.747028,0 -1.463336,0.103311 -2.126553,0.292402 V 8.1998584 C 43.09282,5.5642781 40.325148,3.42 36.923364,3.42 c -3.40367,0 -6.172959,2.1442781 -6.172959,4.7798584 V 31.357609 c 0,7.949102 8.350985,14.415961 18.615894,14.415961 10.265719,0 18.61751,-6.466859 18.61751,-14.415961 V 19.425491 c 0,-2.634744 -2.767673,-4.777979 -6.169456,-4.777979 z m 2.127091,16.710097 c 0,6.222664 -6.538387,11.285324 -14.575145,11.285324 -8.03595,0 -14.573531,-5.06266 -14.573531,-11.285324 V 8.1998584 c 0,-0.9093465 0.955885,-1.6492209 2.130596,-1.6492209 1.172824,0 2.127092,0.7398744 2.127092,1.6492209 v 11.2254246 3.433475 c 0,0.864474 0.90495,1.56532 2.021181,1.56532 1.116232,0 2.021183,-0.700846 2.021183,-1.56532 v -3.433267 c 0,-0.908302 0.953728,-1.647341 2.126553,-1.647341 1.172285,0 2.126013,0.739039 2.126013,1.647341 v 3.433476 c 0,0.864474 0.904951,1.56532 2.021182,1.56532 1.116232,0 2.021182,-0.700846 2.021182,-1.56532 v -3.433476 c 0,-0.908302 0.956154,-1.647341 2.131135,-1.647341 1.172557,0 2.126555,0.739039 2.126555,1.647341 v 3.433476 c 0,0.864474 0.904946,1.56532 2.021183,1.56532 1.116228,0 2.021174,-0.700846 2.021174,-1.56532 v -3.433476 c 0,-0.908302 0.953998,-1.647341 2.127091,-1.647341 1.17283,0 2.127099,0.739039 2.127099,1.647341 v 11.932118 z"
     id="path6521"
     style="stroke-width:0.237161" />
  <g
     id="g6523"
     transform="matrix(0.26949092,0,0,0.20870921,22.022941,2.8584459)" />
  <g
     id="g6525"
     transform="matrix(0.26949092,0,0,0.20870921,22.022941,2.8584459)" />
  <g
     id="g6527"
     transform="matrix(0.26949092,0,0,0.20870921,22.022941,2.8584459)" />
  <g
     id="g6529"
     transform="matrix(0.26949092,0,0,0.20870921,22.022941,2.8584459)" />
  <g
     id="g6531"
     transform="matrix(0.26949092,0,0,0.20870921,22.022941,2.8584459)" />
  <g
     id="g6533"
     transform="matrix(0.26949092,0,0,0.20870921,22.022941,2.8584459)" />
  <g
     id="g6535"
     transform="matrix(0.26949092,0,0,0.20870921,22.022941,2.8584459)" />
  <g
     id="g6537"
     transform="matrix(0.26949092,0,0,0.20870921,22.022941,2.8584459)" />
  <g
     id="g6539"
     transform="matrix(0.26949092,0,0,0.20870921,22.022941,2.8584459)" />
  <g
     id="g6541"
     transform="matrix(0.26949092,0,0,0.20870921,22.022941,2.8584459)" />
  <g
     id="g6543"
     transform="matrix(0.26949092,0,0,0.20870921,22.022941,2.8584459)" />
  <g
     id="g6545"
     transform="matrix(0.26949092,0,0,0.20870921,22.022941,2.8584459)" />
  <g
     id="g6547"
     transform="matrix(0.26949092,0,0,0.20870921,22.022941,2.8584459)" />
  <g
     id="g6549"
     transform="matrix(0.26949092,0,0,0.20870921,22.022941,2.8584459)" />
  <g
     id="g6551"
     transform="matrix(0.26949092,0,0,0.20870921,22.022941,2.8584459)" />
</svg>
