<?xml version="1.0" encoding="UTF-8" standalone="no"?>
<svg
   width="100"
   height="50"
   version="1.1"
   id="svg3847"
   sodipodi:docname="NAND.svg"
   inkscape:version="1.1.1 (3bf5ae0d25, 2021-09-20, custom)"
   xmlns:inkscape="http://www.inkscape.org/namespaces/inkscape"
   xmlns:sodipodi="http://sodipodi.sourceforge.net/DTD/sodipodi-0.dtd"
   xmlns="http://www.w3.org/2000/svg"
   xmlns:svg="http://www.w3.org/2000/svg">
  <defs
     id="defs3851" />
  <sodipodi:namedview
     id="namedview3849"
     pagecolor="#ffffff"
     bordercolor="#666666"
     borderopacity="1.0"
     inkscape:pageshadow="2"
     inkscape:pageopacity="0.0"
     inkscape:pagecheckerboard="0"
     showgrid="false"
     inkscape:zoom="12.45"
     inkscape:cx="45.823293"
     inkscape:cy="25.02008"
     inkscape:window-width="1878"
     inkscape:window-height="1010"
     inkscape:window-x="1939"
     inkscape:window-y="47"
     inkscape:window-maximized="1"
     inkscape:current-layer="svg3847" />
  <path
     fill="none"
     stroke="#000000"
     stroke-width="2"
     d="m 79,25 5.690264,-4.22e-4 M 32.857143,7.857143 7.3398673,7.9016702 M 32.857143,42.142857 7.4147174,42.20157"
     id="path3841"
     sodipodi:nodetypes="cccccc" />
  <path
     d="M30 5V45H50.47619c11.267908 0 20-9.000045 20-20s-8.732091-20-20-20H30zm2.857143 2.857143H50.47619c9.760663 0 16.666667 7.639955 16.666667 17.142857 0 9.502902-7.382195 17.142857-17.142857 17.142857H32.857143V7.857143z"
     id="path3843" />
  <path
     fill="none"
     stroke="#000"
     stroke-width="3"
     d="M79 25a4 4 0 1 1-8 0 4 4 0 1 1 8 0z"
     id="path3845" />
  <ellipse
     style="fill:#000000;fill-opacity:1;fill-rule:evenodd"
     id="path177-3-6"
     cx="8.8030443"
     cy="42.148563"
     rx="3.9862022"
     ry="4.0763268" />
  <ellipse
     style="fill:#000000;fill-opacity:1;fill-rule:evenodd"
     id="path177-3-6-1"
     cx="9.1504688"
     cy="8.2198076"
     rx="3.9862022"
     ry="4.0763268" />
  <ellipse
     style="fill:#000000;fill-opacity:1;fill-rule:evenodd"
     id="path177-3-6-2"
     cx="85.304665"
     cy="24.772562"
     rx="3.9862022"
     ry="4.0763268" />
  <path
     style="fill:#ececec;stroke:none;stroke-width:0.0803213"
     d="M 32.891566,24.975743 V 7.8631323 l 9.618474,0.029092 c 10.581775,0.032006 10.111701,0.011176 12.248751,0.542773 5.000042,1.2437742 9.06539,4.8384277 11.038334,9.7602937 2.039961,5.089048 1.639877,10.998935 -1.054531,15.577124 -2.67966,4.55313 -7.310583,7.553743 -12.654241,8.199332 -0.736902,0.08903 -2.771307,0.112102 -10.060241,0.114101 l -9.136546,0.0025 z"
     id="path7459" />
  <path
     style="fill:#ececec;stroke:none;stroke-width:0.0803213"
     d="m 74.457831,27.399223 c -0.4012,-0.105947 -0.903365,-0.396296 -1.202142,-0.695073 -0.442499,-0.442499 -0.626589,-0.875632 -0.66821,-1.572189 -0.03209,-0.536996 -0.01023,-0.669574 0.180453,-1.094467 0.268349,-0.597961 0.664126,-0.992258 1.276807,-1.272035 0.414002,-0.18905 0.544091,-0.210423 1.084337,-0.178147 0.968039,0.05784 1.619966,0.488668 2.074865,1.371196 0.286902,0.556607 0.310203,1.43487 0.05293,1.995099 -0.387128,0.843003 -1.208425,1.424044 -2.091692,1.479805 -0.256512,0.01619 -0.57482,8.09e-4 -0.70735,-0.03419 z"
     id="path7535" />
</svg>
