<?xml version="1.0" encoding="UTF-8" standalone="no"?>
<svg
   width="100"
   height="50"
   version="1.1"
   id="svg3159"
   sodipodi:docname="NOR.svg"
   inkscape:version="1.1.1 (3bf5ae0d25, 2021-09-20, custom)"
   xmlns:inkscape="http://www.inkscape.org/namespaces/inkscape"
   xmlns:sodipodi="http://sodipodi.sourceforge.net/DTD/sodipodi-0.dtd"
   xmlns="http://www.w3.org/2000/svg"
   xmlns:svg="http://www.w3.org/2000/svg">
  <defs
     id="defs3163" />
  <sodipodi:namedview
     id="namedview3161"
     pagecolor="#ffffff"
     bordercolor="#666666"
     borderopacity="1.0"
     inkscape:pageshadow="2"
     inkscape:pageopacity="0.0"
     inkscape:pagecheckerboard="0"
     showgrid="false"
     inkscape:zoom="12.45"
     inkscape:cx="40.522088"
     inkscape:cy="24.939759"
     inkscape:window-width="1878"
     inkscape:window-height="1010"
     inkscape:window-x="1939"
     inkscape:window-y="47"
     inkscape:window-maximized="1"
     inkscape:current-layer="svg3159" />
  <path
     fill="none"
     stroke="#000000"
     stroke-width="2"
     d="m 79,25 7.880158,0.02363 M 29.96875,8 10.681476,8.0521649 M 30.160643,41.879926 10.378722,41.828474"
     id="path3153"
     sodipodi:nodetypes="cccccc" />
  <path
     fill-rule="evenodd"
     d="M24.09375 5l2 2.4375S31.75 14.437549 31.75 25s-5.65625 17.5625-5.65625 17.5625l-2 2.4375H41.25c2.408076.000001 7.689699.024514 13.625-2.40625s12.536536-7.343266 17.6875-16.875L71.25 25l1.3125-.71875C62.259387 5.21559 46.006574 5 41.25 5H24.09375zm5.875 3H41.25c4.684173 0 18.28685-.130207 27.96875 17C64.451964 33.429075 58.697469 37.68391 53.5 39.8125 48.139339 42.007924 43.658075 42.000001 41.25 42H30c1.873588-3.108434 4.75-9.04935 4.75-17 0-7.973354-2.908531-13.900185-4.78125-17z"
     id="path3155" />
  <path
     fill="none"
     stroke="#000"
     stroke-width="3"
     d="M79 25a4 4 0 1 1-8 0 4 4 0 1 1 8 0z"
     style="marker:none"
     id="path3157" />
  <ellipse
     style="fill:#000000;fill-opacity:1;fill-rule:evenodd"
     id="path177-3-6"
     cx="9.8773794"
     cy="41.74419"
     rx="3.9862022"
     ry="4.0763268" />
  <ellipse
     style="fill:#000000;fill-opacity:1;fill-rule:evenodd"
     id="path177-3-6-2"
     cx="10.024415"
     cy="8.3864927"
     rx="3.9862022"
     ry="4.0763268" />
  <ellipse
     style="fill:#000000;fill-opacity:1;fill-rule:evenodd"
     id="path177-3-6-9"
     cx="85.280113"
     cy="25.000084"
     rx="3.9862022"
     ry="4.0763268" />
  <path
     style="fill:#ececec;stroke:none;stroke-width:0.0803213"
     d="m 30.160643,41.879928 c 0,-0.0313 0.158088,-0.33155 0.351307,-0.667216 1.168448,-2.029863 2.267777,-4.654584 2.981178,-7.117762 2.029151,-7.006096 1.638139,-14.611084 -1.098184,-21.35917 -0.405662,-1.000407 -1.454448,-3.1632059 -1.946739,-4.0145502 -0.202336,-0.34991 -0.367884,-0.6481028 -0.367884,-0.6626507 0,-0.066984 13.110599,-0.014697 14.176707,0.05654 2.167747,0.144847 3.659459,0.3752208 5.542169,0.8559097 6.689711,1.7080002 12.301764,5.7392862 16.863242,12.1133082 1.050658,1.468147 2.454027,3.707833 2.454027,3.916469 0,0.131467 -0.78565,1.438331 -1.629199,2.710037 -2.350814,3.544012 -4.972037,6.375364 -7.985626,8.625792 -3.857306,2.880481 -8.228935,4.643408 -13.305119,5.365495 -1.160024,0.165013 -1.561189,0.174495 -8.626241,0.203886 -4.075301,0.01695 -7.409638,0.0052 -7.409638,-0.02609 z"
     id="path6671" />
  <path
     style="fill:#ececec;stroke:none;stroke-width:0.0803213"
     d="m 74.457831,27.399223 c -0.4012,-0.105947 -0.903365,-0.396296 -1.202142,-0.695073 -0.442499,-0.442499 -0.626589,-0.875632 -0.66821,-1.572189 -0.03209,-0.536996 -0.01023,-0.669574 0.180453,-1.094467 0.268349,-0.597961 0.664126,-0.992258 1.276807,-1.272035 0.414002,-0.18905 0.544091,-0.210423 1.084337,-0.178147 0.968039,0.05784 1.619966,0.488668 2.074865,1.371196 0.286902,0.556607 0.310203,1.43487 0.05293,1.995099 -0.387128,0.843003 -1.208425,1.424044 -2.091692,1.479805 -0.256512,0.01619 -0.57482,8.09e-4 -0.70735,-0.03419 z"
     id="path6747" />
</svg>
