<?xml version="1.0" encoding="UTF-8" standalone="no"?>
<svg
   width="100"
   height="50"
   version="1.1"
   id="svg3159"
   sodipodi:docname="NOR.svg"
   inkscape:version="1.1.1 (3bf5ae0d25, 2021-09-20, custom)"
   xmlns:inkscape="http://www.inkscape.org/namespaces/inkscape"
   xmlns:sodipodi="http://sodipodi.sourceforge.net/DTD/sodipodi-0.dtd"
   xmlns="http://www.w3.org/2000/svg"
   xmlns:svg="http://www.w3.org/2000/svg">
  <defs
     id="defs3163" />
  <sodipodi:namedview
     id="namedview3161"
     pagecolor="#ffffff"
     bordercolor="#666666"
     borderopacity="1.0"
     inkscape:pageshadow="2"
     inkscape:pageopacity="0.0"
     inkscape:pagecheckerboard="0"
     showgrid="false"
     inkscape:zoom="12.45"
     inkscape:cx="85.823293"
     inkscape:cy="24.939759"
     inkscape:window-width="1878"
     inkscape:window-height="1010"
     inkscape:window-x="1939"
     inkscape:window-y="47"
     inkscape:window-maximized="1"
     inkscape:current-layer="svg3159" />
  <path
     fill="none"
     stroke="#000000"
     stroke-width="2"
     d="m 79,25 7.880158,0.02363 M 31,15 11.830192,14.96145 M 32,35 11.861528,35.05641"
     id="path3153"
     sodipodi:nodetypes="cccccc" />
  <path
     fill-rule="evenodd"
     d="M24.09375 5l2 2.4375S31.75 14.437549 31.75 25s-5.65625 17.5625-5.65625 17.5625l-2 2.4375H41.25c2.408076.000001 7.689699.024514 13.625-2.40625s12.536536-7.343266 17.6875-16.875L71.25 25l1.3125-.71875C62.259387 5.21559 46.006574 5 41.25 5H24.09375zm5.875 3H41.25c4.684173 0 18.28685-.130207 27.96875 17C64.451964 33.429075 58.697469 37.68391 53.5 39.8125 48.139339 42.007924 43.658075 42.000001 41.25 42H30c1.873588-3.108434 4.75-9.04935 4.75-17 0-7.973354-2.908531-13.900185-4.78125-17z"
     id="path3155" />
  <path
     fill="none"
     stroke="#000"
     stroke-width="3"
     d="M79 25a4 4 0 1 1-8 0 4 4 0 1 1 8 0z"
     style="marker:none"
     id="path3157" />
  <ellipse
     style="fill:#000000;fill-opacity:1;fill-rule:evenodd"
     id="path177-3-6"
     cx="13.15157"
     cy="35.024685"
     rx="3.9862022"
     ry="4.0763268" />
  <ellipse
     style="fill:#000000;fill-opacity:1;fill-rule:evenodd"
     id="path177-3-6-2"
     cx="13.386143"
     cy="14.906388"
     rx="3.9862022"
     ry="4.0763268" />
  <ellipse
     style="fill:#000000;fill-opacity:1;fill-rule:evenodd"
     id="path177-3-6-9"
     cx="83.732346"
     cy="24.814568"
     rx="3.9862022"
     ry="4.0763268" />
</svg>
