<?xml version="1.0" encoding="UTF-8" standalone="no"?>
<svg
   width="100"
   height="50"
   version="1.1"
   id="svg2458"
   sodipodi:docname="NOT.svg"
   inkscape:version="1.1.1 (3bf5ae0d25, 2021-09-20, custom)"
   xmlns:inkscape="http://www.inkscape.org/namespaces/inkscape"
   xmlns:sodipodi="http://sodipodi.sourceforge.net/DTD/sodipodi-0.dtd"
   xmlns="http://www.w3.org/2000/svg"
   xmlns:svg="http://www.w3.org/2000/svg">
  <defs
     id="defs2462" />
  <sodipodi:namedview
     id="namedview2460"
     pagecolor="#ffffff"
     bordercolor="#666666"
     borderopacity="1.0"
     inkscape:pageshadow="2"
     inkscape:pageopacity="0.0"
     inkscape:pagecheckerboard="0"
     showgrid="false"
     inkscape:zoom="12.45"
     inkscape:cx="34.578313"
     inkscape:cy="24.939759"
     inkscape:window-width="1878"
     inkscape:window-height="1010"
     inkscape:window-x="1939"
     inkscape:window-y="47"
     inkscape:window-maximized="1"
     inkscape:current-layer="svg2458" />
  <path
     fill="none"
     stroke="#000000"
     stroke-width="1.92627"
     d="m 78.470664,24.454655 7.170169,-0.03476 m -55.436273,0.03476 -19.370937,0.08032"
     id="path2452"
     sodipodi:nodetypes="cccc" />
  <path
     d="M 30.132587,4.8193075 V 44.090003 L 32.209351,43.158899 71.728069,25.632228 V 23.277082 L 32.209351,5.7504119 Z M 33.021998,9.0366626 67.815325,24.454655 33.021998,39.872648 Z"
     style="stroke-width:0.91871;marker:none"
     id="path2454" />
  <path
     fill="none"
     stroke="#000000"
     stroke-width="2.88941"
     d="m 78.319539,24.454655 a 3.8525485,3.5053343 0 1 1 -7.705097,0 3.8525485,3.5053343 0 1 1 7.705097,0 z"
     style="marker:none"
     id="path2456" />
  <ellipse
     style="fill:#000000;fill-opacity:1;fill-rule:evenodd"
     id="path177-3-6"
     cx="13.237323"
     cy="24.539982"
     rx="3.9862022"
     ry="4.0763268" />
  <ellipse
     style="fill:#000000;fill-opacity:1;fill-rule:evenodd;stroke-width:1.03076"
     id="path177-3-6-6"
     cx="83.275986"
     cy="24.450161"
     rx="4.2350001"
     ry="4.0763268" />
  <path
     style="fill:#e6e6e6;stroke:none;stroke-width:0.0803213"
     d="m 33.052209,24.463244 c 0,-8.41864 0.02711,-15.3067502 0.06024,-15.3069123 0.08315,-4.071e-4 34.565005,15.2813923 34.539004,15.3071293 -0.03687,0.03649 -34.284242,15.206423 -34.444817,15.257387 -0.151988,0.04824 -0.154428,-0.192861 -0.154427,-15.257604 z"
     id="path84" />
  <path
     style="fill:#e6e6e6;stroke:none;stroke-width:0.0803213"
     d="m 73.946783,26.421863 c -0.509455,-0.103505 -1.137354,-0.484829 -1.434556,-0.871206 -0.477686,-0.621015 -0.529739,-1.324481 -0.146243,-1.97636 0.261271,-0.444116 0.487872,-0.637517 1.047907,-0.894372 0.962561,-0.44147 2.08243,-0.24828 2.811159,0.484956 0.624294,0.628156 0.75761,1.282305 0.41083,2.015842 -0.238154,0.503763 -0.530574,0.779826 -1.093711,1.032534 -0.516786,0.231908 -1.103255,0.308592 -1.595386,0.208606 z"
     id="path160" />
</svg>
