<?xml version="1.0" encoding="UTF-8" standalone="no"?>
<svg
   width="100"
   height="50"
   version="1.1"
   id="svg69"
   sodipodi:docname="SWITCHOFF.svg"
   inkscape:version="1.1.1 (3bf5ae0d25, 2021-09-20, custom)"
   xmlns:inkscape="http://www.inkscape.org/namespaces/inkscape"
   xmlns:sodipodi="http://sodipodi.sourceforge.net/DTD/sodipodi-0.dtd"
   xmlns="http://www.w3.org/2000/svg"
   xmlns:svg="http://www.w3.org/2000/svg">
  <defs
     id="defs73" />
  <sodipodi:namedview
     id="namedview71"
     pagecolor="#ffffff"
     bordercolor="#666666"
     borderopacity="1.0"
     inkscape:pageshadow="2"
     inkscape:pageopacity="0.0"
     inkscape:pagecheckerboard="0"
     showgrid="false"
     inkscape:zoom="3.975"
     inkscape:cx="50.440252"
     inkscape:cy="-5.9119497"
     inkscape:window-width="928"
     inkscape:window-height="1010"
     inkscape:window-x="2889"
     inkscape:window-y="47"
     inkscape:window-maximized="0"
     inkscape:current-layer="svg69" />
  <path
     d="m 66.463451,9.5997274 c -0.01244,-0.00492 -0.02488,-0.00853 -0.03734,-0.013421 -2.059592,-0.8418686 -4.315817,-1.3116066 -6.6828,-1.3116066 H 19.920258 c -2.366983,0 -4.623208,0.469738 -6.682806,1.311607 -0.01244,0.00492 -0.02489,0.00853 -0.03734,0.013421 C 6.9205179,12.182677 2.49767,18.270971 2.49767,25.356087 c 0,9.419165 7.815275,17.081386 17.422585,17.081386 h 39.823053 c 2.366983,0 4.623208,-0.469738 6.682806,-1.311607 0.01244,-0.0049 0.02489,-0.0085 0.03609,-0.01342 6.280842,-2.58295 10.70369,-8.671246 10.70369,-15.75636 0,-7.085115 -4.422848,-13.173409 -10.702446,-15.7563586 z m 6.823432,9.6265816 c 0.883574,1.867972 1.390073,3.9397 1.390073,6.129778 0,2.190077 -0.506499,4.261806 -1.390073,6.129777 -0.614769,0.0732 -1.098868,0.567346 -1.098868,1.190816 0,0.193997 0.056,0.37091 0.138136,0.533185 -0.522677,0.802824 -1.121267,1.550744 -1.788304,2.23644 -0.22276,-0.200095 -0.512721,-0.329426 -0.838772,-0.329426 -0.686948,0 -1.244471,0.546604 -1.244471,1.220099 0,0.267202 0.10578,0.50024 0.253872,0.701556 -2.500141,1.848451 -5.598873,2.958742 -8.965165,2.958742 0,-0.673496 -0.557522,-1.220101 -1.24447,-1.220101 -0.686948,0 -1.244471,0.546605 -1.244471,1.220101 h -4.977881 c 0,-0.673496 -0.557523,-1.220101 -1.244471,-1.220101 -0.686947,0 -1.24447,0.546605 -1.24447,1.220101 h -4.977882 c 0,-0.673496 -0.557523,-1.220101 -1.24447,-1.220101 -0.686948,0 -1.24447,0.546605 -1.24447,1.220101 h -4.977883 c 0,-0.673496 -0.557522,-1.220101 -1.24447,-1.220101 -0.686948,0 -1.24447,0.546605 -1.24447,1.220101 h -4.977882 c 0,-0.673496 -0.557523,-1.220101 -1.24447,-1.220101 -0.686948,0 -1.244471,0.546605 -1.244471,1.220101 h -4.977881 c 0,-0.673496 -0.557523,-1.220101 -1.244471,-1.220101 -0.686947,0 -1.24447,0.546605 -1.24447,1.220101 -3.366292,0 -6.465024,-1.110291 -8.965165,-2.958742 0.148092,-0.201316 0.253872,-0.434354 0.253872,-0.701556 0,-0.673495 -0.557523,-1.220099 -1.2444696,-1.220099 -0.3260514,0 -0.6160126,0.129331 -0.8375284,0.329426 -2.5586312,-2.629313 -4.1403534,-6.178581 -4.1403534,-10.090218 0,-2.190078 0.5064991,-4.261806 1.3900731,-6.129778 0.614769,-0.0732 1.0988677,-0.567346 1.0988677,-1.190816 0,-0.193996 -0.055996,-0.370911 -0.1381358,-0.533183 0.5226772,-0.802826 1.121268,-1.550747 1.7883041,-2.236443 0.2227601,0.200097 0.5127213,0.329427 0.8387727,0.329427 0.6869466,0 1.2444696,-0.546604 1.2444696,-1.220099 0,-0.267201 -0.10578,-0.50024 -0.253872,-0.701557 2.500141,-1.84845 5.598873,-2.95874 8.965165,-2.95874 0,0.673495 0.557523,1.220099 1.24447,1.220099 0.686948,0 1.244471,-0.546604 1.244471,-1.220099 h 4.977881 c 0,0.673495 0.557523,1.220099 1.244471,1.220099 0.686947,0 1.24447,-0.546604 1.24447,-1.220099 h 4.977882 c 0,0.673495 0.557522,1.220099 1.24447,1.220099 0.686948,0 1.24447,-0.546604 1.24447,-1.220099 h 4.977883 c 0,0.673495 0.557522,1.220099 1.24447,1.220099 0.686947,0 1.24447,-0.546604 1.24447,-1.220099 h 4.977882 c 0,0.673495 0.557523,1.220099 1.24447,1.220099 0.686948,0 1.244471,-0.546604 1.244471,-1.220099 h 4.977881 c 0,0.673495 0.557523,1.220099 1.244471,1.220099 0.686948,0 1.24447,-0.546604 1.24447,-1.220099 3.366292,0 6.465024,1.11029 8.965165,2.95874 -0.148092,0.201317 -0.253872,0.434356 -0.253872,0.701557 0,0.673495 0.557523,1.220099 1.244471,1.220099 0.326051,0 0.616012,-0.12933 0.837528,-0.329427 0.667036,0.685696 1.265627,1.434837 1.788304,2.236443 -0.08089,0.162272 -0.136892,0.339187 -0.136892,0.533183 0,0.62347 0.484099,1.11761 1.098868,1.190816 z"
     id="path976"
     style="stroke-width:1.23223" />
  <path
     d="m 16.460631,37.067817 c 0.227738,0.290384 0.568722,0.48926 0.970686,0.48926 0.212805,0 0.404453,-0.06588 0.579924,-0.158613 0.623479,0.09395 1.258159,0.158613 1.909017,0.158613 1.367673,0 2.680589,-0.225718 3.912614,-0.627131 0.21405,0.36847 0.602325,0.627131 1.065268,0.627131 0.686948,0 1.24447,-0.546604 1.24447,-1.220099 0,-0.136651 -0.03734,-0.261101 -0.07841,-0.384332 2.437918,-1.36407 4.35938,-3.509004 5.410957,-6.089514 0.22525,0.229379 0.538855,0.373351 0.889796,0.373351 0.686948,0 1.244471,-0.546605 1.244471,-1.220099 0,-0.673495 -0.557523,-1.220099 -1.244471,-1.220099 -0.09333,0 -0.17547,0.03294 -0.262583,0.05246 0.170492,-0.805265 0.262583,-1.638593 0.262583,-2.492663 0,-0.854068 -0.09209,-1.687396 -0.262583,-2.492662 0.08712,0.01952 0.169248,0.05246 0.262583,0.05246 0.686948,0 1.244471,-0.546604 1.244471,-1.220099 0,-0.673496 -0.557523,-1.2201 -1.244471,-1.2201 -0.350941,0 -0.664546,0.143973 -0.89104,0.373351 -0.408186,-1.002921 -0.95202,-1.936298 -1.602878,-2.789146 0,-0.0085 0.0049,-0.01586 0.0049,-0.02441 0,-0.605169 -0.457965,-1.085888 -1.047844,-1.181055 -0.813884,-0.819907 -1.744748,-1.525124 -2.765213,-2.094911 0.04232,-0.123229 0.07964,-0.247681 0.07964,-0.384332 0,-0.673494 -0.557522,-1.220099 -1.24447,-1.220099 -0.462942,0 -0.851217,0.258662 -1.065267,0.627132 -1.232025,-0.401407 -2.544941,-0.627126 -3.912614,-0.627126 -0.650858,0 -1.285538,0.06467 -1.909018,0.158614 -0.175471,-0.09273 -0.367119,-0.158614 -0.579923,-0.158614 -0.401965,0 -0.742949,0.198877 -0.970687,0.48926 -5.181975,1.4751 -8.9850759,6.162721 -8.9850759,11.711731 0,5.549012 3.8031009,10.236631 8.9850759,11.711732 z m 3.459627,-21.472523 c 5.489359,0 9.955763,4.378936 9.955763,9.760793 0,5.381857 -4.466404,9.760792 -9.955763,9.760792 -5.489359,0 -9.9557626,-4.378935 -9.9557626,-9.760792 0,-5.381857 4.4664036,-9.760793 9.9557626,-9.760793 z"
     id="path980"
     style="stroke-width:1.23223" />
  <ellipse
     cx="32.364964"
     cy="14.375196"
     id="circle982"
     rx="1.2444705"
     ry="1.220099"
     style="stroke-width:1.23223" />
  <ellipse
     cx="39.831783"
     cy="14.375196"
     id="circle984"
     rx="1.2444705"
     ry="1.220099"
     style="stroke-width:1.23223" />
  <ellipse
     cx="47.298611"
     cy="14.375196"
     id="circle986"
     rx="1.2444705"
     ry="1.220099"
     style="stroke-width:1.23223" />
  <ellipse
     cx="54.765427"
     cy="14.375196"
     id="circle988"
     rx="1.2444705"
     ry="1.220099"
     style="stroke-width:1.23223" />
  <ellipse
     cx="62.23225"
     cy="14.375196"
     id="circle990"
     rx="1.2444705"
     ry="1.220099"
     style="stroke-width:1.23223" />
  <ellipse
     cx="6.2310843"
     cy="25.356089"
     id="circle992"
     rx="1.2444705"
     ry="1.220099"
     style="stroke-width:1.23223" />
  <ellipse
     cx="36.098373"
     cy="18.03549"
     id="circle994"
     rx="1.2444705"
     ry="1.220099"
     style="stroke-width:1.23223" />
  <ellipse
     cx="43.565197"
     cy="18.03549"
     id="circle996"
     rx="1.2444705"
     ry="1.220099"
     style="stroke-width:1.23223" />
  <ellipse
     cx="36.098373"
     cy="25.356089"
     id="circle998"
     rx="1.2444705"
     ry="1.220099"
     style="stroke-width:1.23223" />
  <ellipse
     cx="43.565197"
     cy="25.356089"
     id="circle1000"
     rx="1.2444705"
     ry="1.220099"
     style="stroke-width:1.23223" />
  <ellipse
     cx="39.831783"
     cy="21.695791"
     id="circle1002"
     rx="1.2444705"
     ry="1.220099"
     style="stroke-width:1.23223" />
  <ellipse
     cx="47.298611"
     cy="21.695791"
     id="circle1004"
     rx="1.2444705"
     ry="1.220099"
     style="stroke-width:1.23223" />
  <ellipse
     cx="39.831783"
     cy="29.016382"
     id="circle1006"
     rx="1.2444705"
     ry="1.220099"
     style="stroke-width:1.23223" />
  <ellipse
     cx="47.298611"
     cy="29.016382"
     id="circle1008"
     rx="1.2444705"
     ry="1.220099"
     style="stroke-width:1.23223" />
  <ellipse
     cx="51.032017"
     cy="18.03549"
     id="circle1010"
     rx="1.2444705"
     ry="1.220099"
     style="stroke-width:1.23223" />
  <ellipse
     cx="58.49884"
     cy="18.03549"
     id="circle1012"
     rx="1.2444705"
     ry="1.220099"
     style="stroke-width:1.23223" />
  <ellipse
     cx="51.032017"
     cy="25.356089"
     id="circle1014"
     rx="1.2444705"
     ry="1.220099"
     style="stroke-width:1.23223" />
  <ellipse
     cx="58.49884"
     cy="25.356089"
     id="circle1016"
     rx="1.2444705"
     ry="1.220099"
     style="stroke-width:1.23223" />
  <ellipse
     cx="54.765427"
     cy="21.695791"
     id="circle1018"
     rx="1.2444705"
     ry="1.220099"
     style="stroke-width:1.23223" />
  <ellipse
     cx="62.23225"
     cy="21.695791"
     id="circle1020"
     rx="1.2444705"
     ry="1.220099"
     style="stroke-width:1.23223" />
  <ellipse
     cx="54.765427"
     cy="29.016382"
     id="circle1022"
     rx="1.2444705"
     ry="1.220099"
     style="stroke-width:1.23223" />
  <ellipse
     cx="62.23225"
     cy="29.016382"
     id="circle1024"
     rx="1.2444705"
     ry="1.220099"
     style="stroke-width:1.23223" />
  <ellipse
     cx="65.96566"
     cy="18.03549"
     id="circle1026"
     rx="1.2444705"
     ry="1.220099"
     style="stroke-width:1.23223" />
  <ellipse
     cx="65.96566"
     cy="25.356089"
     id="circle1028"
     rx="1.2444705"
     ry="1.220099"
     style="stroke-width:1.23223" />
  <ellipse
     cx="73.432487"
     cy="25.356089"
     id="circle1030"
     rx="1.2444705"
     ry="1.220099"
     style="stroke-width:1.23223" />
  <ellipse
     cx="36.098373"
     cy="32.676685"
     id="circle1032"
     rx="1.2444705"
     ry="1.220099"
     style="stroke-width:1.23223" />
  <ellipse
     cx="43.565197"
     cy="32.676685"
     id="circle1034"
     rx="1.2444705"
     ry="1.220099"
     style="stroke-width:1.23223" />
  <ellipse
     cx="51.032017"
     cy="32.676685"
     id="circle1036"
     rx="1.2444705"
     ry="1.220099"
     style="stroke-width:1.23223" />
  <ellipse
     cx="58.49884"
     cy="32.676685"
     id="circle1038"
     rx="1.2444705"
     ry="1.220099"
     style="stroke-width:1.23223" />
  <ellipse
     cx="65.96566"
     cy="32.676685"
     id="circle1040"
     rx="1.2444705"
     ry="1.220099"
     style="stroke-width:1.23223" />
  <ellipse
     cx="69.699074"
     cy="21.695791"
     id="circle1042"
     rx="1.2444705"
     ry="1.220099"
     style="stroke-width:1.23223" />
  <ellipse
     cx="69.699074"
     cy="29.016382"
     id="circle1044"
     rx="1.2444705"
     ry="1.220099"
     style="stroke-width:1.23223" />
  <ellipse
     cx="32.364964"
     cy="36.336979"
     id="circle1046"
     rx="1.2444705"
     ry="1.220099"
     style="stroke-width:1.23223" />
  <ellipse
     cx="39.831783"
     cy="36.336979"
     id="circle1048"
     rx="1.2444705"
     ry="1.220099"
     style="stroke-width:1.23223" />
  <ellipse
     cx="47.298611"
     cy="36.336979"
     id="circle1050"
     rx="1.2444705"
     ry="1.220099"
     style="stroke-width:1.23223" />
  <ellipse
     cx="54.765427"
     cy="36.336979"
     id="circle1052"
     rx="1.2444705"
     ry="1.220099"
     style="stroke-width:1.23223" />
  <ellipse
     cx="62.23225"
     cy="36.336979"
     id="circle1054"
     rx="1.2444705"
     ry="1.220099"
     style="stroke-width:1.23223" />
  <ellipse
     style="fill:#000000;fill-opacity:1;fill-rule:evenodd;stroke-width:0.857589"
     id="path177-3-6-2"
     cx="80.116913"
     cy="25.36145"
     rx="3.575984"
     ry="3.3418834" />
  <path
     style="fill:#e6e6e6;stroke:none;stroke-width:0.215745"
     d="m 18.170828,39.736368 c -1.855567,-0.192067 -4.188793,-0.970501 -5.766019,-1.923715 -1.04544,-0.631826 -1.184837,-0.799018 -1.184837,-1.421094 0,-0.933537 -0.551651,-1.425608 -1.4497936,-1.293213 -0.6059867,0.08933 -0.7848748,-0.0062 -1.4078402,-0.752261 C 7.2304052,32.990592 6.0711793,30.686906 5.5812937,28.81942 4.9481206,26.405711 4.9503166,26.393664 6.0000022,26.52233 c 0.5857612,0.0718 0.9338915,0.01772 1.0568974,-0.164157 0.1154867,-0.170768 0.3338341,0.374328 0.5895188,1.471713 0.9544928,4.096626 3.3530636,6.969284 7.3474576,8.799714 l 2.216099,1.015525 2.477815,-0.05016 c 1.362798,-0.02759 2.810625,-0.144303 3.217393,-0.259368 0.582766,-0.164848 0.875871,-0.137723 1.382379,0.127937 0.598585,0.313953 0.684074,0.312428 1.24284,-0.02215 0.330021,-0.197614 0.658887,-0.628201 0.730813,-0.956856 0.08497,-0.38827 0.448105,-0.798525 1.036824,-1.17137 1.157495,-0.733058 2.737243,-2.504317 3.55675,-3.98793 0.616029,-1.115246 0.66865,-1.154809 1.428159,-1.073777 0.653658,0.06974 0.854137,-0.0073 1.171831,-0.450426 0.4987,-0.695562 0.280966,-1.497166 -0.520907,-1.91774 -0.607148,-0.318445 -0.612526,-0.340961 -0.612526,-2.564232 0,-1.233631 0.08078,-2.242966 0.17952,-2.242966 0.365917,0 1.28742,-1.026668 1.28742,-1.434346 0,-0.662682 -0.826781,-1.285218 -1.607489,-1.210379 -0.620976,0.05953 -0.735108,-0.03997 -1.451546,-1.265394 -0.427667,-0.731499 -0.777578,-1.436189 -0.777578,-1.565976 0,-0.129788 -0.80403,-0.826459 -1.786731,-1.548159 -1.234542,-0.906658 -1.825018,-1.487134 -1.910616,-1.878264 -0.06813,-0.311343 -0.377564,-0.717979 -0.687616,-0.903635 -0.517136,-0.309658 -0.623163,-0.310463 -1.28279,-0.0097 -0.589084,0.268563 -0.886319,0.286298 -1.644372,0.09811 -0.50892,-0.126339 -1.963483,-0.232347 -3.232363,-0.235571 -2.293098,-0.0058 -2.319854,-9.5e-5 -4.423244,0.947614 -3.919278,1.76588 -6.4573204,4.804569 -7.3053844,8.746422 C 7.3807291,24.20109 7.2561369,24.473815 7.0076487,24.28535 6.8352619,24.154604 6.3596471,24.104748 5.9145094,24.170762 4.9999935,24.306386 5.0088758,24.342448 5.4670921,22.354218 5.913962,20.41522 6.210638,19.775896 6.9690916,19.117473 c 0.4435322,-0.385036 0.6399515,-0.758657 0.6399515,-1.217291 0,-0.429642 0.257258,-0.968562 0.7334702,-1.536519 0.642015,-0.765701 0.820028,-0.862016 1.4276651,-0.772443 0.8945196,0.131861 1.4497936,-0.35887 1.4497936,-1.281276 0,-0.788389 0.383298,-1.099913 2.613403,-2.124037 1.571767,-0.721798 3.725525,-1.278332 4.947079,-1.278332 0.624717,0 0.950502,0.131082 1.281482,0.515614 0.288307,0.334956 0.669639,0.515615 1.088354,0.515615 0.625951,0 1.35384,-0.451471 1.35384,-0.839715 0,-0.10556 1.051885,-0.191514 2.343717,-0.191514 2.250927,0 2.358353,0.02041 2.713399,0.515614 0.277721,0.387351 0.566086,0.515615 1.15921,0.515615 0.623154,0 0.843699,-0.108652 1.046597,-0.515615 0.249811,-0.501051 0.322246,-0.515614 2.564564,-0.515614 2.212286,0 2.322742,0.02128 2.677173,0.515614 0.525749,0.733285 1.840213,0.733285 2.205806,0 0.249811,-0.501051 0.322247,-0.515614 2.564565,-0.515614 2.212286,0 2.322742,0.02128 2.677172,0.515614 0.525749,0.733285 1.840214,0.733285 2.205807,0 0.25068,-0.502795 0.316562,-0.515614 2.649845,-0.515614 2.264929,0 2.404674,0.02479 2.61555,0.464053 0.177611,0.369966 0.405808,0.464053 1.125511,0.464053 0.719704,0 0.947901,-0.09409 1.125512,-0.464053 0.210729,-0.438954 0.35126,-0.464053 2.59826,-0.464053 2.247001,0 2.387532,0.0251 2.598261,0.464053 0.17761,0.369966 0.405808,0.464053 1.125511,0.464053 0.734596,0 0.944766,-0.0907 1.128415,-0.487001 0.212953,-0.45953 0.308428,-0.480477 1.692624,-0.371349 1.863468,0.146913 3.86709,0.773908 5.683449,1.778528 1.245004,0.688607 1.41617,0.858044 1.351363,1.337705 -0.04082,0.302075 0.09507,0.785327 0.301967,1.073892 0.311668,0.434698 0.513063,0.510059 1.174497,0.439491 0.729264,-0.0778 0.863726,-0.0038 1.554325,0.856099 0.475991,0.592642 0.758072,1.183994 0.761595,1.596602 0.0039,0.45107 0.183129,0.78295 0.575176,1.064775 0.670976,0.482334 1.422373,2.332112 1.61052,3.964764 l 0.132234,1.14746 -0.855781,-0.0913 c -1.011945,-0.107964 -1.456554,0.293964 -1.456554,1.316728 0,0.850877 0.466044,1.187827 1.491584,1.078412 l 0.820751,-0.08757 -0.133663,1.14746 c -0.198143,1.700978 -0.982193,3.637336 -1.629813,4.025128 -0.399648,0.239306 -0.548859,0.515538 -0.548859,1.016098 0,0.464282 -0.249191,0.985695 -0.767611,1.606175 -0.694293,0.830973 -0.843293,0.910654 -1.559922,0.834197 -0.658445,-0.07025 -0.85729,0.0061 -1.176925,0.451911 -0.214908,0.299743 -0.337755,0.760459 -0.278414,1.044146 0.08526,0.407604 -0.0564,0.606039 -0.718485,1.006451 -2.168408,1.311396 -4.049542,1.943301 -6.500696,2.1837 -1.206218,0.1183 -1.410519,0.09048 -1.410519,-0.192048 0,-0.510941 -0.47287,-0.825376 -1.241258,-0.825376 -0.788156,0 -1.241257,0.316206 -1.241257,0.866233 0,0.334993 -0.242399,0.371242 -2.482515,0.371242 -2.278093,0 -2.482514,-0.03189 -2.482514,-0.387238 0,-0.56881 -0.546316,-0.887282 -1.394208,-0.812747 -0.554675,0.04875 -0.822743,0.21146 -1.042631,0.632809 -0.294397,0.564128 -0.308392,0.567176 -2.603869,0.567176 h -2.307879 l -0.255558,-0.618737 c -0.219362,-0.531105 -0.371694,-0.618738 -1.07555,-0.618738 -0.674646,0 -0.888133,0.109441 -1.204439,0.617434 l -0.384449,0.617433 -2.313252,0.0012 c -1.85503,0.0011 -2.313253,-0.057 -2.313253,-0.293265 0,-0.487479 -0.666839,-0.942839 -1.380715,-0.942839 -0.509644,0 -0.764059,0.148772 -1.055875,0.617434 l -0.384449,0.617432 -2.313252,0.0012 c -1.855029,0.0011 -2.313252,-0.05699 -2.313252,-0.293264 0,-0.487479 -0.666839,-0.942839 -1.380716,-0.942839 -0.509644,0 -0.764059,0.148771 -1.055874,0.617434 l -0.384449,0.617432 -2.313252,0.0012 c -1.788006,0.0011 -2.313252,-0.06162 -2.313252,-0.276031 0,-0.432256 -0.765999,-0.960073 -1.393313,-0.960073 -0.523556,0 -1.134372,0.424249 -1.341857,0.931999 -0.05543,0.13566 -0.621858,0.154659 -1.598132,0.05361 z m 15.063508,-2.523076 c 0.671615,-0.613769 0.706359,-1.21069 0.102584,-1.762464 -0.918417,-0.839317 -2.256831,-0.276882 -2.256831,0.948377 0,0.467029 0.156177,0.778169 0.501583,0.999265 0.688137,0.440477 1.007161,0.404733 1.652664,-0.185178 z m 7.447543,0 c 0.640446,-0.585284 0.697733,-1.070591 0.20263,-1.716572 -0.419953,-0.547927 -1.355101,-0.604227 -1.944161,-0.117048 -0.59293,0.49038 -0.543467,1.614038 0.08887,2.018798 0.688137,0.440477 1.00716,0.404733 1.652664,-0.185178 z m 7.550128,0.09375 c 1.287383,-1.176505 -0.497026,-3.041472 -1.844115,-1.927369 -0.852518,0.70507 -0.194801,2.339861 0.941383,2.339861 0.248251,0 0.65448,-0.185621 0.902732,-0.412492 z m 7.447544,0 c 1.287382,-1.176505 -0.497027,-3.041472 -1.844116,-1.927369 -0.852518,0.70507 -0.1948,2.339861 0.941383,2.339861 0.248252,0 0.654481,-0.185621 0.902733,-0.412492 z m 7.447543,0 c 0.913242,-0.834588 0.328579,-2.268704 -0.924912,-2.268704 -0.711721,0 -1.331919,0.645607 -1.331919,1.38649 0,0.579994 0.747499,1.294706 1.354099,1.294706 0.248251,0 0.654481,-0.185621 0.902732,-0.412492 z M 36.986501,33.665773 c 0.59293,-0.490381 0.543467,-1.614039 -0.08887,-2.018798 -0.675081,-0.432121 -1.21302,-0.4041 -1.755248,0.09143 -1.262524,1.153787 0.523036,3.019962 1.844116,1.92737 z m 7.447544,0 c 0.242049,-0.200186 0.412715,-0.624653 0.412715,-1.026473 0,-1.348698 -1.90704,-1.758063 -2.464137,-0.528951 -0.613267,1.353041 0.904588,2.503907 2.051422,1.555424 z m 7.447543,0 c 0.546851,-0.452268 0.53588,-1.555331 -0.02004,-2.0151 -0.575357,-0.475844 -1.339383,-0.345607 -1.881672,0.320753 -0.981174,1.205654 0.691096,2.695578 1.90171,1.694347 z m 7.447543,0 c 0.226995,-0.187733 0.412717,-0.621277 0.412717,-0.963428 0,-1.215941 -1.306686,-1.809469 -2.137222,-0.970776 -1.164683,1.176119 0.45058,2.987797 1.724505,1.934204 z m 7.49083,0.03074 c 0.604716,-0.552631 0.6738,-1.144542 0.201341,-1.725091 -0.849363,-1.043688 -2.314426,-0.626375 -2.314426,0.659248 0,1.15359 1.29971,1.809166 2.113085,1.065843 z M 40.884509,29.8363 c 0.49771,-0.649383 0.437281,-1.131778 -0.216645,-1.729382 -0.882125,-0.80615 -2.140232,-0.264219 -2.140232,0.921908 0,1.165632 1.649292,1.730686 2.356877,0.807474 z m 7.447544,0 c 0.517263,-0.674895 0.429337,-1.311808 -0.248349,-1.798964 -0.951223,-0.68379 -2.108528,-0.139592 -2.108528,0.99149 0,1.165632 1.649292,1.730686 2.356877,0.807474 z m 7.447543,0 c 0.750884,-0.979706 0.219224,-2.085315 -1.002778,-2.085315 -0.839868,0 -1.354099,0.48527 -1.354099,1.277841 0,1.165632 1.649293,1.730686 2.356877,0.807474 z m 7.386149,0.117049 c 0.486899,-0.402689 0.538049,-1.279397 0.106137,-1.819202 -0.409568,-0.511874 -1.685472,-0.511874 -2.095039,0 -1.02992,1.287189 0.709001,2.877737 1.988902,1.819202 z m 7.447544,0 c 0.77736,-0.642912 0.412934,-1.939529 -0.623818,-2.219526 -0.618063,-0.166921 -1.671665,0.582686 -1.671665,1.189341 0,1.163314 1.383673,1.78429 2.295483,1.030185 z M 37.165594,26.183325 c 0.602138,-1.028207 0.03493,-2.076017 -1.123798,-2.076017 -0.67138,0 -1.350777,0.622409 -1.350777,1.237475 0,0.176391 0.158096,0.526982 0.351321,0.779092 0.462014,0.602806 1.783386,0.639804 2.123254,0.05945 z m 7.55136,-0.271366 c 0.138798,-0.362878 0.138798,-0.771475 0,-1.134352 -0.175248,-0.458175 -0.374674,-0.579253 -1.037698,-0.630019 -0.644738,-0.04936 -0.897955,0.03788 -1.180724,0.406821 -0.197983,0.258315 -0.35997,0.613984 -0.35997,0.790374 0,0.176391 0.161987,0.532059 0.35997,0.790374 0.282769,0.368941 0.535986,0.456187 1.180724,0.406821 0.663024,-0.05076 0.86245,-0.171844 1.037698,-0.630019 z m 7.30653,0.422804 c 0.350366,-0.320189 0.350366,-1.659771 0,-1.97996 -0.385747,-0.352523 -1.651647,-0.306312 -1.995991,0.07287 -0.160012,0.176198 -0.29093,0.5889 -0.29093,0.917117 0,0.328217 0.130918,0.74092 0.29093,0.917117 0.344344,0.379175 1.610244,0.425386 1.995991,0.07287 z m 7.447544,0 c 0.350366,-0.320189 0.350366,-1.659771 0,-1.97996 -0.148951,-0.136122 -0.585648,-0.247495 -0.970438,-0.247495 -0.913265,0 -1.241257,0.326992 -1.241257,1.237475 0,0.408366 0.121869,0.853857 0.27082,0.98998 0.349828,0.319699 1.591045,0.319699 1.940875,0 z m 7.672653,-0.422804 c 0.444095,-0.850885 -0.04474,-1.679445 -1.042598,-1.767162 -0.986181,-0.08669 -1.394207,0.259813 -1.394207,1.18399 0,0.965255 0.360049,1.287956 1.351528,1.211338 0.60455,-0.04671 0.858533,-0.193725 1.085277,-0.628166 z m -26.461802,-3.34212 c 0.640446,-0.585286 0.697733,-1.070592 0.20263,-1.716573 -0.419953,-0.547926 -1.355101,-0.604227 -1.944161,-0.117049 -0.59293,0.490381 -0.543467,1.61404 0.08887,2.018798 0.688137,0.440479 1.00716,0.404733 1.652664,-0.185176 z m 7.550128,0.09375 c 1.287383,-1.176503 -0.497026,-3.041471 -1.844115,-1.92737 -0.852518,0.70507 -0.194801,2.339861 0.941383,2.339861 0.248251,0 0.65448,-0.185621 0.902732,-0.412491 z m 7.447544,0 c 1.287382,-1.176503 -0.497027,-3.041471 -1.844116,-1.92737 -0.852518,0.70507 -0.1948,2.339861 0.941383,2.339861 0.248252,0 0.654481,-0.185621 0.902733,-0.412491 z m 7.447543,0 c 0.913242,-0.834589 0.328579,-2.268704 -0.924912,-2.268704 -0.711721,0 -1.331919,0.645607 -1.331919,1.386489 0,0.579994 0.747499,1.294706 1.354099,1.294706 0.248251,0 0.654481,-0.185621 0.902732,-0.412491 z m 7.447544,0 c 0.913242,-0.834589 0.328579,-2.268704 -0.924913,-2.268704 -0.711721,0 -1.331919,0.645607 -1.331919,1.386489 0,0.579994 0.747499,1.294706 1.354099,1.294706 0.248251,0 0.654482,-0.185621 0.902733,-0.412491 z m -33.588137,-3.64127 c 0.59293,-0.490379 0.543467,-1.614039 -0.08887,-2.018797 -0.675081,-0.432121 -1.21302,-0.404101 -1.755248,0.09143 -1.262524,1.153787 0.523036,3.01996 1.844116,1.927369 z m 7.447544,0 c 0.242049,-0.200186 0.412715,-0.624651 0.412715,-1.026474 0,-1.348697 -1.90704,-1.758061 -2.464137,-0.52895 -0.613267,1.353043 0.904588,2.503907 2.051422,1.555424 z m 7.447543,0 c 0.546851,-0.452268 0.53588,-1.55533 -0.02004,-2.0151 -0.575357,-0.475844 -1.339383,-0.345607 -1.881672,0.320753 -0.981174,1.205653 0.691096,2.695578 1.90171,1.694347 z m 7.447543,0 c 0.226995,-0.187734 0.412717,-0.621275 0.412717,-0.963427 0,-1.215942 -1.306686,-1.809469 -2.137222,-0.970776 -1.164683,1.176117 0.45058,2.987795 1.724505,1.934203 z m 7.49083,0.03074 c 0.604716,-0.552633 0.6738,-1.144543 0.201341,-1.725093 -0.849363,-1.043687 -2.314426,-0.626375 -2.314426,0.659249 0,1.153592 1.29971,1.809167 2.113085,1.065844 z M 33.469437,15.137117 c 0.465481,-0.649227 0.272079,-1.431706 -0.462601,-1.871627 -0.471242,-0.282176 -0.637812,-0.289609 -1.181253,-0.05271 -0.494383,0.215517 -0.647595,0.438903 -0.701024,1.022098 -0.08291,0.904983 0.39387,1.416348 1.320547,1.416348 0.449893,0 0.771432,-0.161381 1.024331,-0.514112 z m 7.415072,0.05573 c 0.49771,-0.649383 0.437281,-1.131778 -0.216645,-1.729382 -0.882125,-0.806151 -2.140232,-0.26422 -2.140232,0.921908 0,1.165632 1.649292,1.730686 2.356877,0.807474 z m 7.447544,0 c 0.517263,-0.674893 0.429337,-1.311806 -0.248349,-1.798964 -0.951223,-0.683789 -2.108528,-0.139591 -2.108528,0.991492 0,1.165632 1.649292,1.730686 2.356877,0.807474 z m 7.447543,0 c 0.750884,-0.979705 0.219224,-2.085314 -1.002778,-2.085314 -0.839868,0 -1.354099,0.485271 -1.354099,1.277842 0,1.165632 1.649293,1.730686 2.356877,0.807474 z m 7.386149,0.117048 c 0.486899,-0.402689 0.538049,-1.279396 0.106137,-1.819202 -0.409568,-0.511874 -1.685472,-0.511874 -2.095039,0 -1.02992,1.28719 0.709001,2.877737 1.988902,1.819202 z"
     id="path215" />
  <path
     style="fill:#a0a0a0;stroke:none;stroke-width:0.251572"
     d="m 16.828947,34.447898 c -2.840466,-0.984017 -5.089997,-3.163595 -6.140139,-5.949203 -0.454402,-1.205348 -0.528877,-1.821174 -0.434524,-3.593035 0.143809,-2.700591 0.740642,-4.092182 2.583866,-6.024611 5.531144,-5.798826 15.08824,-3.020444 16.716249,4.859648 0.82242,3.980776 -1.516208,8.366355 -5.466817,10.251807 -2.227038,1.062867 -5.002468,1.236993 -7.258635,0.455394 z"
     id="path1523" />
</svg>
