<?xml version="1.0" encoding="UTF-8" standalone="no"?>
<svg
   width="100"
   height="50"
   version="1.1"
   id="svg69"
   sodipodi:docname="SWITCHOFF.svg"
   inkscape:version="1.1.1 (3bf5ae0d25, 2021-09-20, custom)"
   xmlns:inkscape="http://www.inkscape.org/namespaces/inkscape"
   xmlns:sodipodi="http://sodipodi.sourceforge.net/DTD/sodipodi-0.dtd"
   xmlns="http://www.w3.org/2000/svg"
   xmlns:svg="http://www.w3.org/2000/svg">
  <defs
     id="defs73" />
  <sodipodi:namedview
     id="namedview71"
     pagecolor="#ffffff"
     bordercolor="#666666"
     borderopacity="1.0"
     inkscape:pageshadow="2"
     inkscape:pageopacity="0.0"
     inkscape:pagecheckerboard="0"
     showgrid="false"
     inkscape:zoom="3.975"
     inkscape:cx="35.849057"
     inkscape:cy="-5.6603774"
     inkscape:window-width="858"
     inkscape:window-height="1010"
     inkscape:window-x="1939"
     inkscape:window-y="47"
     inkscape:window-maximized="1"
     inkscape:current-layer="svg69" />
  <path
     d="m 80.450919,5.6798269 c -0.01387,-0.00601 -0.02774,-0.010412 -0.04162,-0.016365 C 78.113437,4.6365762 75.59839,4.063604 72.959879,4.063604 H 28.568534 c -2.638511,0 -5.153558,0.5729722 -7.449423,1.5998576 -0.01387,0.00601 -0.02774,0.010412 -0.04162,0.016365 C 14.077534,8.8304299 9.1473201,16.256744 9.1473201,24.89895 c 0,11.489208 8.7118019,20.835351 19.4212139,20.835351 h 44.391345 c 2.638511,0 5.153558,-0.572972 7.449423,-1.599858 0.01387,-0.006 0.02775,-0.01041 0.04023,-0.01637 7.001347,-3.150603 11.931561,-10.576919 11.931561,-19.219124 0,-8.642206 -4.930214,-16.0685197 -11.930174,-19.2191221 z m 7.60618,11.7422081 c 0.984933,2.278495 1.549535,4.805525 1.549535,7.476915 0,2.671389 -0.564602,5.19842 -1.549535,7.476914 -0.685292,0.08929 -1.224924,0.692031 -1.224924,1.452521 0,0.236632 0.06242,0.452425 0.153982,0.650362 -0.582636,0.979261 -1.249893,1.891551 -1.993449,2.727942 -0.248314,-0.24407 -0.571538,-0.401824 -0.934992,-0.401824 -0.765751,0 -1.38723,0.666731 -1.38723,1.488239 0,0.325925 0.117915,0.610178 0.282995,0.855737 -2.786944,2.254683 -6.241146,3.608982 -9.993602,3.608982 0,-0.82151 -0.621478,-1.488241 -1.387229,-1.488241 -0.765751,0 -1.38723,0.666731 -1.38723,1.488241 h -5.548918 c 0,-0.82151 -0.621479,-1.488241 -1.38723,-1.488241 -0.76575,0 -1.387229,0.666731 -1.387229,1.488241 h -5.548918 c 0,-0.82151 -0.621479,-1.488241 -1.38723,-1.488241 -0.765751,0 -1.387229,0.666731 -1.387229,1.488241 h -5.548919 c 0,-0.82151 -0.621478,-1.488241 -1.387229,-1.488241 -0.765751,0 -1.38723,0.666731 -1.38723,1.488241 H 39.66637 c 0,-0.82151 -0.621479,-1.488241 -1.387229,-1.488241 -0.765751,0 -1.38723,0.666731 -1.38723,1.488241 h -5.548918 c 0,-0.82151 -0.621479,-1.488241 -1.38723,-1.488241 -0.76575,0 -1.387229,0.666731 -1.387229,1.488241 -3.752456,0 -7.206658,-1.354299 -9.993602,-3.608982 0.16508,-0.245559 0.282995,-0.529812 0.282995,-0.855737 0,-0.821508 -0.621479,-1.488239 -1.38723,-1.488239 -0.363454,0 -0.686678,0.157754 -0.933605,0.401824 -2.852144,-3.207156 -4.615313,-7.536444 -4.615313,-12.307739 0,-2.67139 0.564602,-5.19842 1.549535,-7.476915 0.685292,-0.08929 1.224924,-0.692031 1.224924,-1.452521 0,-0.23663 -0.06242,-0.452425 -0.153982,-0.65036 0.582636,-0.979262 1.249894,-1.891553 1.993449,-2.727944 0.248314,0.244072 0.571538,0.401825 0.934992,0.401825 0.765751,0 1.38723,-0.666731 1.38723,-1.48824 0,-0.325923 -0.117915,-0.610177 -0.282995,-0.855737 2.786944,-2.2546831 6.241146,-3.6089803 9.993602,-3.6089803 0,0.821508 0.621479,1.4882391 1.387229,1.4882391 0.765751,0 1.38723,-0.6667311 1.38723,-1.4882391 h 5.548918 c 0,0.821508 0.621479,1.4882391 1.38723,1.4882391 0.76575,0 1.387229,-0.6667311 1.387229,-1.4882391 h 5.548918 c 0,0.821508 0.621479,1.4882391 1.38723,1.4882391 0.765751,0 1.387229,-0.6667311 1.387229,-1.4882391 h 5.548919 c 0,0.821508 0.621478,1.4882391 1.387229,1.4882391 0.765751,0 1.38723,-0.6667311 1.38723,-1.4882391 h 5.548918 c 0,0.821508 0.621479,1.4882391 1.387229,1.4882391 0.765751,0 1.38723,-0.6667311 1.38723,-1.4882391 h 5.548918 c 0,0.821508 0.621479,1.4882391 1.38723,1.4882391 0.765751,0 1.387229,-0.6667311 1.387229,-1.4882391 3.752456,0 7.206658,1.3542972 9.993602,3.6089803 -0.16508,0.24556 -0.282995,0.529814 -0.282995,0.855737 0,0.821509 0.621479,1.48824 1.38723,1.48824 0.363454,0 0.686678,-0.157753 0.933605,-0.401825 0.743555,0.836391 1.410813,1.75017 1.993449,2.727944 -0.09017,0.197935 -0.152595,0.41373 -0.152595,0.65036 0,0.76049 0.539632,1.363227 1.224924,1.452521 z"
     id="path976"
     style="stroke-width:1.43685" />
  <path
     d="m 24.712036,39.184559 c 0.253863,0.354202 0.633963,0.596784 1.082039,0.596784 0.237216,0 0.450849,-0.08036 0.646449,-0.193471 0.695002,0.114601 1.402489,0.193471 2.12801,0.193471 1.524565,0 2.988092,-0.275324 4.361449,-0.764955 0.238604,0.449449 0.67142,0.764955 1.187469,0.764955 0.765751,0 1.387229,-0.666731 1.387229,-1.488239 0,-0.166683 -0.04162,-0.318483 -0.0874,-0.468796 2.717583,-1.663851 4.859465,-4.280176 6.031674,-7.427802 0.251089,0.279789 0.60067,0.455401 0.991869,0.455401 0.765751,0 1.38723,-0.666731 1.38723,-1.488239 0,-0.821508 -0.621479,-1.488239 -1.38723,-1.488239 -0.104042,0 -0.195599,0.04018 -0.292705,0.06399 0.19005,-0.982237 0.292705,-1.998705 0.292705,-3.040473 0,-1.041767 -0.102655,-2.058234 -0.292705,-3.040473 0.09711,0.02381 0.188663,0.06399 0.292705,0.06399 0.765751,0 1.38723,-0.666731 1.38723,-1.488239 0,-0.82151 -0.621479,-1.488241 -1.38723,-1.488241 -0.391199,0 -0.74078,0.175614 -0.993256,0.455402 -0.455011,-1.223332 -1.061231,-2.361836 -1.786752,-3.402114 0,-0.01041 0.0055,-0.01934 0.0055,-0.02977 0,-0.738166 -0.5105,-1.324533 -1.168047,-1.440615 -0.907248,-1.000097 -1.944896,-1.860299 -3.082424,-2.555308 0.04717,-0.150311 0.08878,-0.302113 0.08878,-0.468796 0,-0.821507 -0.621478,-1.488239 -1.387229,-1.488239 -0.516049,0 -0.948865,0.315508 -1.187469,0.764956 -1.373357,-0.489631 -2.836884,-0.764956 -4.361449,-0.764956 -0.725521,0 -1.433008,0.07888 -2.12801,0.193472 -0.1956,-0.113106 -0.409233,-0.193472 -0.646449,-0.193472 -0.448076,0 -0.828176,0.242584 -1.082039,0.596784 -5.776424,1.799282 -10.015798,7.517098 -10.015798,14.28561 0,6.768514 4.239374,12.486328 10.015798,14.285611 z m 3.856498,-26.191524 c 6.119069,0 11.097836,5.341291 11.097836,11.905915 0,6.564624 -4.978767,11.905915 -11.097836,11.905915 -6.11907,0 -11.097837,-5.341291 -11.097837,-11.905915 0,-6.564624 4.978767,-11.905915 11.097837,-11.905915 z"
     id="path980"
     style="stroke-width:1.43685" />
  <ellipse
     cx="42.44083"
     cy="11.504796"
     id="circle982"
     rx="1.3872296"
     ry="1.4882393"
     style="stroke-width:1.43685" />
  <ellipse
     cx="50.764206"
     cy="11.504796"
     id="circle984"
     rx="1.3872296"
     ry="1.4882393"
     style="stroke-width:1.43685" />
  <ellipse
     cx="59.087585"
     cy="11.504796"
     id="circle986"
     rx="1.3872296"
     ry="1.4882393"
     style="stroke-width:1.43685" />
  <ellipse
     cx="67.410957"
     cy="11.504796"
     id="circle988"
     rx="1.3872296"
     ry="1.4882393"
     style="stroke-width:1.43685" />
  <ellipse
     cx="75.734337"
     cy="11.504796"
     id="circle990"
     rx="1.3872296"
     ry="1.4882393"
     style="stroke-width:1.43685" />
  <ellipse
     cx="13.309009"
     cy="24.898952"
     id="circle992"
     rx="1.3872296"
     ry="1.4882393"
     style="stroke-width:1.43685" />
  <ellipse
     cx="46.602516"
     cy="15.969512"
     id="circle994"
     rx="1.3872296"
     ry="1.4882393"
     style="stroke-width:1.43685" />
  <ellipse
     cx="54.925896"
     cy="15.969512"
     id="circle996"
     rx="1.3872296"
     ry="1.4882393"
     style="stroke-width:1.43685" />
  <ellipse
     cx="46.602516"
     cy="24.898952"
     id="circle998"
     rx="1.3872296"
     ry="1.4882393"
     style="stroke-width:1.43685" />
  <ellipse
     cx="54.925896"
     cy="24.898952"
     id="circle1000"
     rx="1.3872296"
     ry="1.4882393"
     style="stroke-width:1.43685" />
  <ellipse
     cx="50.764206"
     cy="20.434235"
     id="circle1002"
     rx="1.3872296"
     ry="1.4882393"
     style="stroke-width:1.43685" />
  <ellipse
     cx="59.087585"
     cy="20.434235"
     id="circle1004"
     rx="1.3872296"
     ry="1.4882393"
     style="stroke-width:1.43685" />
  <ellipse
     cx="50.764206"
     cy="29.363668"
     id="circle1006"
     rx="1.3872296"
     ry="1.4882393"
     style="stroke-width:1.43685" />
  <ellipse
     cx="59.087585"
     cy="29.363668"
     id="circle1008"
     rx="1.3872296"
     ry="1.4882393"
     style="stroke-width:1.43685" />
  <ellipse
     cx="63.249271"
     cy="15.969512"
     id="circle1010"
     rx="1.3872296"
     ry="1.4882393"
     style="stroke-width:1.43685" />
  <ellipse
     cx="71.572647"
     cy="15.969512"
     id="circle1012"
     rx="1.3872296"
     ry="1.4882393"
     style="stroke-width:1.43685" />
  <ellipse
     cx="63.249271"
     cy="24.898952"
     id="circle1014"
     rx="1.3872296"
     ry="1.4882393"
     style="stroke-width:1.43685" />
  <ellipse
     cx="71.572647"
     cy="24.898952"
     id="circle1016"
     rx="1.3872296"
     ry="1.4882393"
     style="stroke-width:1.43685" />
  <ellipse
     cx="67.410957"
     cy="20.434235"
     id="circle1018"
     rx="1.3872296"
     ry="1.4882393"
     style="stroke-width:1.43685" />
  <ellipse
     cx="75.734337"
     cy="20.434235"
     id="circle1020"
     rx="1.3872296"
     ry="1.4882393"
     style="stroke-width:1.43685" />
  <ellipse
     cx="67.410957"
     cy="29.363668"
     id="circle1022"
     rx="1.3872296"
     ry="1.4882393"
     style="stroke-width:1.43685" />
  <ellipse
     cx="75.734337"
     cy="29.363668"
     id="circle1024"
     rx="1.3872296"
     ry="1.4882393"
     style="stroke-width:1.43685" />
  <ellipse
     cx="79.896027"
     cy="15.969512"
     id="circle1026"
     rx="1.3872296"
     ry="1.4882393"
     style="stroke-width:1.43685" />
  <ellipse
     cx="79.896027"
     cy="24.898952"
     id="circle1028"
     rx="1.3872296"
     ry="1.4882393"
     style="stroke-width:1.43685" />
  <ellipse
     cx="88.219406"
     cy="24.898952"
     id="circle1030"
     rx="1.3872296"
     ry="1.4882393"
     style="stroke-width:1.43685" />
  <ellipse
     cx="46.602516"
     cy="33.828388"
     id="circle1032"
     rx="1.3872296"
     ry="1.4882393"
     style="stroke-width:1.43685" />
  <ellipse
     cx="54.925896"
     cy="33.828388"
     id="circle1034"
     rx="1.3872296"
     ry="1.4882393"
     style="stroke-width:1.43685" />
  <ellipse
     cx="63.249271"
     cy="33.828388"
     id="circle1036"
     rx="1.3872296"
     ry="1.4882393"
     style="stroke-width:1.43685" />
  <ellipse
     cx="71.572647"
     cy="33.828388"
     id="circle1038"
     rx="1.3872296"
     ry="1.4882393"
     style="stroke-width:1.43685" />
  <ellipse
     cx="79.896027"
     cy="33.828388"
     id="circle1040"
     rx="1.3872296"
     ry="1.4882393"
     style="stroke-width:1.43685" />
  <ellipse
     cx="84.057716"
     cy="20.434235"
     id="circle1042"
     rx="1.3872296"
     ry="1.4882393"
     style="stroke-width:1.43685" />
  <ellipse
     cx="84.057716"
     cy="29.363668"
     id="circle1044"
     rx="1.3872296"
     ry="1.4882393"
     style="stroke-width:1.43685" />
  <ellipse
     cx="42.44083"
     cy="38.293106"
     id="circle1046"
     rx="1.3872296"
     ry="1.4882393"
     style="stroke-width:1.43685" />
  <ellipse
     cx="50.764206"
     cy="38.293106"
     id="circle1048"
     rx="1.3872296"
     ry="1.4882393"
     style="stroke-width:1.43685" />
  <ellipse
     cx="59.087585"
     cy="38.293106"
     id="circle1050"
     rx="1.3872296"
     ry="1.4882393"
     style="stroke-width:1.43685" />
  <ellipse
     cx="67.410957"
     cy="38.293106"
     id="circle1052"
     rx="1.3872296"
     ry="1.4882393"
     style="stroke-width:1.43685" />
  <ellipse
     cx="75.734337"
     cy="38.293106"
     id="circle1054"
     rx="1.3872296"
     ry="1.4882393"
     style="stroke-width:1.43685" />
</svg>
