<?xml version="1.0" encoding="UTF-8" standalone="no"?>
<svg
   width="100"
   height="50"
   version="1.1"
   id="svg69"
   sodipodi:docname="SWITCHON.svg"
   inkscape:version="1.1.1 (3bf5ae0d25, 2021-09-20, custom)"
   xmlns:inkscape="http://www.inkscape.org/namespaces/inkscape"
   xmlns:sodipodi="http://sodipodi.sourceforge.net/DTD/sodipodi-0.dtd"
   xmlns="http://www.w3.org/2000/svg"
   xmlns:svg="http://www.w3.org/2000/svg">
  <defs
     id="defs73" />
  <sodipodi:namedview
     id="namedview71"
     pagecolor="#ffffff"
     bordercolor="#666666"
     borderopacity="1.0"
     inkscape:pageshadow="2"
     inkscape:pageopacity="0.0"
     inkscape:pagecheckerboard="0"
     showgrid="false"
     inkscape:zoom="3.975"
     inkscape:cx="42.893082"
     inkscape:cy="-5.9119497"
     inkscape:window-width="928"
     inkscape:window-height="1010"
     inkscape:window-x="2889"
     inkscape:window-y="47"
     inkscape:window-maximized="0"
     inkscape:current-layer="svg69" />
  <path
     d="m 66.463451,9.5997274 c -0.01244,-0.00492 -0.02488,-0.00853 -0.03734,-0.013421 -2.059592,-0.8418686 -4.315817,-1.3116066 -6.6828,-1.3116066 H 19.920258 c -2.366983,0 -4.623208,0.469738 -6.682806,1.311607 -0.01244,0.00492 -0.02489,0.00853 -0.03734,0.013421 C 6.9205179,12.182677 2.49767,18.270971 2.49767,25.356087 c 0,9.419165 7.815275,17.081386 17.422585,17.081386 h 39.823053 c 2.366983,0 4.623208,-0.469738 6.682806,-1.311607 0.01244,-0.0049 0.02489,-0.0085 0.03609,-0.01342 6.280842,-2.58295 10.70369,-8.671246 10.70369,-15.75636 0,-7.085115 -4.422848,-13.173409 -10.702446,-15.7563586 z m 6.823432,9.6265816 c 0.883574,1.867972 1.390073,3.9397 1.390073,6.129778 0,2.190077 -0.506499,4.261806 -1.390073,6.129777 -0.614769,0.0732 -1.098868,0.567346 -1.098868,1.190816 0,0.193997 0.056,0.37091 0.138136,0.533185 -0.522677,0.802824 -1.121267,1.550744 -1.788304,2.23644 -0.22276,-0.200095 -0.512721,-0.329426 -0.838772,-0.329426 -0.686948,0 -1.244471,0.546604 -1.244471,1.220099 0,0.267202 0.10578,0.50024 0.253872,0.701556 -2.500141,1.848451 -5.598873,2.958742 -8.965165,2.958742 0,-0.673496 -0.557522,-1.220101 -1.24447,-1.220101 -0.686948,0 -1.244471,0.546605 -1.244471,1.220101 h -4.977881 c 0,-0.673496 -0.557523,-1.220101 -1.244471,-1.220101 -0.686947,0 -1.24447,0.546605 -1.24447,1.220101 h -4.977882 c 0,-0.673496 -0.557523,-1.220101 -1.24447,-1.220101 -0.686948,0 -1.24447,0.546605 -1.24447,1.220101 h -4.977883 c 0,-0.673496 -0.557522,-1.220101 -1.24447,-1.220101 -0.686948,0 -1.24447,0.546605 -1.24447,1.220101 h -4.977882 c 0,-0.673496 -0.557523,-1.220101 -1.24447,-1.220101 -0.686948,0 -1.244471,0.546605 -1.244471,1.220101 h -4.977881 c 0,-0.673496 -0.557523,-1.220101 -1.244471,-1.220101 -0.686947,0 -1.24447,0.546605 -1.24447,1.220101 -3.366292,0 -6.465024,-1.110291 -8.965165,-2.958742 0.148092,-0.201316 0.253872,-0.434354 0.253872,-0.701556 0,-0.673495 -0.557523,-1.220099 -1.2444696,-1.220099 -0.3260514,0 -0.6160126,0.129331 -0.8375284,0.329426 -2.5586312,-2.629313 -4.1403534,-6.178581 -4.1403534,-10.090218 0,-2.190078 0.5064991,-4.261806 1.3900731,-6.129778 0.614769,-0.0732 1.0988677,-0.567346 1.0988677,-1.190816 0,-0.193996 -0.055996,-0.370911 -0.1381358,-0.533183 0.5226772,-0.802826 1.121268,-1.550747 1.7883041,-2.236443 0.2227601,0.200097 0.5127213,0.329427 0.8387727,0.329427 0.6869466,0 1.2444696,-0.546604 1.2444696,-1.220099 0,-0.267201 -0.10578,-0.50024 -0.253872,-0.701557 2.500141,-1.84845 5.598873,-2.95874 8.965165,-2.95874 0,0.673495 0.557523,1.220099 1.24447,1.220099 0.686948,0 1.244471,-0.546604 1.244471,-1.220099 h 4.977881 c 0,0.673495 0.557523,1.220099 1.244471,1.220099 0.686947,0 1.24447,-0.546604 1.24447,-1.220099 h 4.977882 c 0,0.673495 0.557522,1.220099 1.24447,1.220099 0.686948,0 1.24447,-0.546604 1.24447,-1.220099 h 4.977883 c 0,0.673495 0.557522,1.220099 1.24447,1.220099 0.686947,0 1.24447,-0.546604 1.24447,-1.220099 h 4.977882 c 0,0.673495 0.557523,1.220099 1.24447,1.220099 0.686948,0 1.244471,-0.546604 1.244471,-1.220099 h 4.977881 c 0,0.673495 0.557523,1.220099 1.244471,1.220099 0.686948,0 1.24447,-0.546604 1.24447,-1.220099 3.366292,0 6.465024,1.11029 8.965165,2.95874 -0.148092,0.201317 -0.253872,0.434356 -0.253872,0.701557 0,0.673495 0.557523,1.220099 1.244471,1.220099 0.326051,0 0.616012,-0.12933 0.837528,-0.329427 0.667036,0.685696 1.265627,1.434837 1.788304,2.236443 -0.08089,0.162272 -0.136892,0.339187 -0.136892,0.533183 0,0.62347 0.484099,1.11761 1.098868,1.190816 z"
     id="path976"
     style="stroke-width:1.23223" />
  <ellipse
     style="fill:#000000;fill-opacity:1;fill-rule:evenodd;stroke-width:0.857589"
     id="path177-3-6-2"
     cx="80.116913"
     cy="25.36145"
     rx="3.575984"
     ry="3.3418834" />
  <path
     d="m 57.809656,34.724207 c 5.617783,0 10.188219,-4.193448 10.188219,-9.347855 0,-5.154408 -4.570436,-9.347856 -10.188219,-9.347856 -5.617784,0 -10.188219,4.193448 -10.188219,9.347856 0,5.154407 4.570435,9.347855 10.188219,9.347855 z m 0,-16.82614 c 4.494023,0 8.150575,3.354945 8.150575,7.478285 0,4.123338 -3.656552,7.478283 -8.150575,7.478283 -4.494023,0 -8.150575,-3.354945 -8.150575,-7.478283 0,-4.12334 3.656552,-7.478285 8.150575,-7.478285 z"
     id="path978"
     style="stroke-width:0.975897" />
  <path
     style="fill:#008000;stroke:none;stroke-width:0.251572"
     d="M 22.386699,39.433962 C 22.025008,38.609545 20.40205,38.494045 19.990293,39.263421 19.723101,39.762674 19.554229,39.800717 18.14994,39.678018 16.228756,39.510156 14.299965,38.882224 12.620117,37.877746 11.573044,37.25164 11.320229,36.966038 11.273565,36.356558 11.202999,35.434891 10.530494,34.895183 9.6633333,35.064291 9.1159072,35.171047 8.865605,34.999041 8.0917746,33.984327 6.8921531,32.411279 5.7865619,29.946649 5.4006717,27.985207 4.7905718,24.884128 5.5231696,20.488344 6.8560731,19.252406 c 0.3706982,-0.343731 0.6861168,-0.901835 0.7009304,-1.240232 0.014813,-0.338397 0.3357429,-1.020138 0.7131766,-1.514979 0.549348,-0.720232 0.8564906,-0.899711 1.5396783,-0.899711 0.9525376,0 1.6627706,-0.726402 1.4617656,-1.495046 -0.226961,-0.867899 3.915863,-2.760733 6.911802,-3.157966 1.231726,-0.163315 1.365376,-0.128676 1.842158,0.477454 0.293623,0.373281 0.768252,0.653546 1.106781,0.653546 0.593329,0 1.383358,-0.584949 1.383358,-1.024259 0,-0.128482 1.075472,-0.233603 2.389937,-0.233603 1.314466,0 2.389937,0.105121 2.389937,0.233603 0,0.442944 0.792193,1.024259 1.395818,1.024259 0.3679,0 0.766728,-0.246581 1.017253,-0.628931 0.391111,-0.59691 0.532298,-0.628931 2.773096,-0.628931 1.94574,0 2.361003,0.06732 2.361003,0.382752 0,0.609234 1.134991,1.011856 1.886793,0.669312 0.345912,-0.157608 0.628931,-0.458799 0.628931,-0.669312 0,-0.315432 0.415262,-0.382752 2.361003,-0.382752 2.240798,0 2.381985,0.03202 2.773095,0.628931 0.250525,0.38235 0.649353,0.628931 1.017253,0.628931 0.603627,0 1.395818,-0.581315 1.395818,-1.024259 0,-0.128482 1.075472,-0.233603 2.389937,-0.233603 1.314466,0 2.389938,0.105121 2.389938,0.233603 0,0.442944 0.792191,1.024259 1.395818,1.024259 0.3679,0 0.766728,-0.246581 1.017253,-0.628931 0.39111,-0.59691 0.532297,-0.628931 2.773095,-0.628931 1.945741,0 2.361003,0.06732 2.361003,0.382752 0,0.609234 1.134992,1.011856 1.886793,0.669312 0.345912,-0.157608 0.628931,-0.458799 0.628931,-0.669312 0,-1.039456 5.377084,0.356114 8.205144,2.129565 0.318355,0.199636 0.486161,0.50974 0.417636,0.77178 -0.224433,0.858232 0.378576,1.495777 1.414749,1.495777 0.831537,0 1.053887,0.130825 1.62637,0.956919 0.36473,0.526305 0.663145,1.197464 0.663145,1.491464 0,0.541187 0.601688,1.325202 1.017019,1.325202 0.124498,0 0.482115,0.820755 0.794704,1.8239 1.116896,3.584289 0.56327,8.782737 -1.089829,10.233308 -0.4404,0.386443 -0.721894,0.883549 -0.721894,1.274827 0,0.352758 -0.335565,1.048474 -0.745698,1.546038 -0.592924,0.71932 -0.878202,0.87933 -1.392463,0.781023 -0.861935,-0.164769 -1.712669,0.595862 -1.559955,1.394738 0.09042,0.473006 -0.09282,0.720908 -0.924747,1.251042 -1.514732,0.965242 -4.052845,1.827766 -5.88079,1.99846 -1.451515,0.135545 -1.633122,0.09845 -1.986229,-0.405678 -0.522835,-0.746453 -1.867723,-0.646526 -2.223862,0.165235 C 57.130365,39.961318 56.956911,40 54.823494,40 c -2.212747,0 -2.299788,-0.02171 -2.583341,-0.644028 -0.25042,-0.549615 -0.431522,-0.632596 -1.23535,-0.566037 -0.691905,0.05729 -1.007824,0.228229 -1.190245,0.644027 C 49.583416,39.960813 49.409026,40 47.295597,40 c -2.113428,0 -2.287818,-0.03919 -2.518961,-0.566038 -0.18242,-0.415798 -0.498339,-0.586737 -1.190244,-0.644027 -0.803828,-0.06656 -0.98493,0.01643 -1.23535,0.566037 C 42.067489,39.978299 41.980448,40 39.767701,40 c -2.133417,0 -2.306871,-0.03868 -2.538234,-0.566038 -0.18948,-0.431884 -0.457019,-0.566037 -1.128838,-0.566037 -0.671819,0 -0.939359,0.134153 -1.128838,0.566037 C 34.740164,39.961922 34.567842,40 32.410128,40 30.318642,40 30.081502,39.951806 29.937293,39.497439 29.631086,38.532669 27.841146,38.488496 27.424622,39.435431 27.193693,39.96043 27.017147,40 24.90566,40 22.792231,40 22.617841,39.96081 22.386699,39.433962 Z m 39.941009,-5.529076 c 1.898574,-0.879112 4.033776,-2.923385 4.903789,-4.694953 0.608661,-1.239394 0.693031,-1.70214 0.693031,-3.801128 0,-2.064372 -0.09151,-2.585156 -0.671743,-3.823018 -1.83886,-3.922974 -6.746601,-6.312397 -11.295567,-5.499451 -4.635012,0.828323 -7.835495,4.057551 -8.424878,8.500551 -0.33907,2.556017 1.103348,5.976557 3.25489,7.718629 2.329819,1.88642 4.044267,2.424101 7.451764,2.337001 2.243502,-0.05735 2.859567,-0.168489 4.088714,-0.737631 z"
     id="path5801" />
  <path
     style="fill:#008000;stroke:none;stroke-width:0.251572"
     d="m 23.61125,39.827029 c -0.435197,-0.0586 -0.990478,-0.326677 -1.23396,-0.595721 -0.531382,-0.58717 -1.928251,-0.65287 -2.37729,-0.111811 -1.089708,1.313019 -8.099392,-0.920445 -8.584765,-2.735323 -0.270319,-1.010762 -0.694411,-1.415621 -1.482871,-1.415621 -0.8615431,0 -1.9613102,-1.184695 -2.9877155,-3.218437 -1.118887,-2.216988 -1.536162,-3.938531 -1.5328576,-6.324079 0.0036,-2.60222 0.4800215,-4.533739 1.4577344,-5.910035 0.4006553,-0.56399 0.7994755,-1.318363 0.8862674,-1.676384 0.270887,-1.117427 1.093606,-1.910329 2.2964293,-2.213203 0.923869,-0.232633 1.165013,-0.413602 1.299076,-0.974905 0.09054,-0.379085 0.283409,-0.839586 0.428595,-1.023336 0.662833,-0.838892 5.207021,-2.558992 6.760385,-2.558992 0.413287,0 1.039271,0.226415 1.391075,0.503145 0.842788,0.662937 1.948817,0.651452 2.422732,-0.02516 0.327537,-0.467624 0.620597,-0.528302 2.551575,-0.528302 1.930979,0 2.224039,0.06068 2.551575,0.528302 0.488793,0.69785 1.677162,0.693793 2.330942,-0.008 0.427602,-0.458977 0.79173,-0.538139 2.526706,-0.549311 1.769514,-0.01139 2.092138,0.05675 2.538868,0.536259 0.6668,0.715725 1.826956,0.715725 2.493756,0 0.446729,-0.479509 0.769353,-0.547653 2.538868,-0.536259 1.734976,0.01117 2.099104,0.09033 2.526707,0.549311 0.653778,0.70175 1.842148,0.705807 2.330941,0.008 0.327537,-0.467624 0.620596,-0.528302 2.551574,-0.528302 1.930979,0 2.224038,0.06068 2.551575,0.528302 0.488793,0.69785 1.677163,0.693793 2.330941,-0.008 0.427603,-0.458977 0.791731,-0.538139 2.526707,-0.549311 1.769515,-0.01139 2.092138,0.05675 2.538868,0.536259 0.651195,0.698976 1.858787,0.72185 2.437326,0.04617 0.695685,-0.812501 2.169492,-0.63978 5.653295,0.662532 2.056644,0.768813 2.967578,1.449656 2.967578,2.218005 0,0.737501 0.390654,1.055069 1.568692,1.27521 0.986083,0.18427 1.741104,1.062903 2.079816,2.420328 0.09114,0.365268 0.42645,0.890828 0.745122,1.167911 1.002974,0.872073 1.508843,2.870215 1.510591,5.966706 0.0018,3.067895 -0.322239,4.51176 -1.263275,5.630116 -0.345862,0.411033 -0.754745,1.123728 -0.908629,1.583766 -0.507759,1.517945 -1.399537,2.471652 -2.311157,2.471652 -1.001477,0 -1.42116,0.384816 -1.42116,1.303087 0,0.579087 -0.227067,0.830393 -1.320755,1.461739 -2.657265,1.533944 -6.498986,2.270193 -7.232704,1.386118 -0.44154,-0.53202 -1.84522,-0.476118 -2.361205,0.09404 -0.832463,0.919859 -4.778939,0.917856 -5.071072,-0.0026 -0.216393,-0.681792 -1.792747,-0.634642 -2.549462,0.07625 -0.48884,0.45924 -0.877959,0.545071 -2.471092,0.545071 -1.593132,0 -1.982251,-0.08583 -2.471091,-0.545071 -0.756715,-0.710896 -2.33307,-0.758046 -2.549462,-0.07625 -0.292133,0.920432 -4.238609,0.922435 -5.071072,0.0026 -0.570173,-0.630036 -1.567167,-0.596043 -2.284536,0.07789 -0.504186,0.473658 -0.863667,0.547492 -2.610855,0.536242 -1.774402,-0.01142 -2.072838,-0.07968 -2.401765,-0.549288 -0.477609,-0.681884 -1.757715,-0.712664 -2.469218,-0.05938 -0.544138,0.499617 -2.418979,0.797539 -3.826348,0.608025 z m 39.13913,-5.993984 c 1.712111,-0.941135 3.474719,-2.639664 4.435313,-4.274066 0.701693,-1.193896 0.738835,-1.402531 0.738835,-4.150174 0,-2.544473 -0.07036,-3.024929 -0.583909,-3.987274 -4.277411,-8.015468 -16.862189,-7.138614 -19.535698,1.361166 -1.263422,4.01675 0.866666,8.87646 4.762214,10.864794 1.850618,0.944578 2.457708,1.048214 5.797645,0.989714 2.828475,-0.04954 3.105064,-0.100258 4.3856,-0.80416 z"
     id="path6142" />
  <path
     style="fill:#808080;stroke:none;stroke-width:0.251572"
     d="m 55.301679,32.35733 c -5.425048,-1.774106 -7.186613,-7.890075 -3.402471,-11.813028 1.487468,-1.542031 3.110727,-2.247511 5.459283,-2.372641 2.70907,-0.144337 4.504425,0.513787 6.300054,2.309416 4.573017,4.573017 1.29702,11.813614 -5.49003,12.134044 -1.088776,0.0514 -2.237108,-0.05186 -2.866836,-0.257791 z"
     id="path6218" />
  <path
     style="fill:#a0a0a0;stroke:none;stroke-width:0.251572"
     d="M 23.61125,39.827029 C 23.176053,39.768428 22.620772,39.500352 22.37729,39.231308 21.845908,38.644138 20.449039,38.578438 20,39.119497 19.297105,39.966433 15.897075,39.385278 13.198118,37.956873 12.112289,37.382204 11.69615,36.985228 11.311325,36.156969 10.900329,35.272377 10.682787,35.081293 10.012912,35.01647 8.6109696,34.880807 6.748382,32.152179 5.777132,28.811196 5.1150469,26.533703 5.3441879,22.389381 6.2238731,20.731287 6.5840764,20.052349 7.2098653,18.81761 7.6145152,17.987421 8.4812216,16.209267 8.712685,15.990202 10.123256,15.613066 c 0.846055,-0.226205 1.100177,-0.426398 1.228757,-0.967993 0.238956,-1.006519 0.704264,-1.429537 2.418814,-2.198981 3.127955,-1.403743 5.126422,-1.687191 6.160526,-0.873765 0.842788,0.662937 1.948817,0.651452 2.422732,-0.02516 0.327537,-0.467624 0.620597,-0.528302 2.551575,-0.528302 1.930979,0 2.224039,0.06068 2.551575,0.528302 0.479793,0.685 1.529864,0.681304 2.263561,-0.008 0.481931,-0.452751 0.88624,-0.538302 2.596014,-0.549311 1.767527,-0.01138 2.090289,0.05684 2.536941,0.53627 0.653937,0.701919 1.680926,0.701929 2.42807,2.4e-5 0.50396,-0.473446 0.863817,-0.547491 2.606249,-0.536271 1.706091,0.01099 2.110637,0.0967 2.592393,0.549288 0.733695,0.689273 1.783766,0.692969 2.26356,0.008 0.327537,-0.467624 0.620596,-0.528302 2.551574,-0.528302 1.930979,0 2.224038,0.06068 2.551575,0.528302 0.479794,0.685 1.529864,0.681304 2.26356,-0.008 0.481932,-0.452751 0.886242,-0.538302 2.596015,-0.549311 1.767527,-0.01138 2.090289,0.05684 2.536941,0.53627 0.642325,0.689456 1.77686,0.711473 2.378954,0.04617 0.259358,-0.286587 0.774835,-0.503145 1.197645,-0.503145 1.667799,0 5.996503,1.501283 7.032797,2.439117 0.246843,0.223388 0.448803,0.657772 0.448803,0.965297 0,0.716916 0.398838,1.035866 1.568692,1.254478 0.994085,0.185765 1.741275,1.063791 2.088241,2.453896 0.09578,0.383731 0.393308,0.851202 0.661175,1.038824 0.749736,0.525135 1.483152,2.784441 1.644063,5.064575 0.196601,2.785859 -0.259497,5.099356 -1.304946,6.619173 -0.447447,0.650474 -0.899057,1.463055 -1.003575,1.805736 -0.104521,0.34268 -0.465675,0.99098 -0.802571,1.440665 -0.471223,0.628989 -0.801104,0.81761 -1.429919,0.81761 -1.001477,0 -1.42116,0.384816 -1.42116,1.303087 0,0.579087 -0.227067,0.830393 -1.320755,1.461739 -2.678933,1.546452 -6.238068,2.214359 -7.34368,1.378118 -0.699754,-0.529268 -1.651467,-0.455713 -2.328078,0.179929 -0.504187,0.473658 -0.863668,0.547492 -2.610856,0.536242 -1.774402,-0.01142 -2.072837,-0.07968 -2.401766,-0.549288 -0.500561,-0.714652 -1.764646,-0.710239 -2.530063,0.0088 -0.48884,0.45924 -0.877959,0.545072 -2.471092,0.545072 -1.593132,0 -1.982251,-0.08583 -2.471091,-0.545072 -0.765417,-0.719072 -2.029502,-0.723484 -2.530063,-0.0088 -0.328929,0.46961 -0.627364,0.537862 -2.401766,0.549288 -1.747188,0.01124 -2.106669,-0.06258 -2.610856,-0.536242 -0.321579,-0.302108 -0.853117,-0.549288 -1.181192,-0.549288 -0.328076,0 -0.859613,0.24718 -1.181193,0.549288 -0.504186,0.473658 -0.863667,0.547492 -2.610855,0.536242 -1.774402,-0.01142 -2.072838,-0.07968 -2.401765,-0.549288 -0.477609,-0.681884 -1.757715,-0.712664 -2.469218,-0.05938 -0.544138,0.499617 -2.418979,0.797539 -3.826348,0.608025 z m 38.950056,-5.937691 c 1.735786,-0.852399 3.986548,-3.043924 4.779343,-4.653559 0.503655,-1.022586 0.583826,-1.565681 0.583502,-3.95276 -5.03e-4,-3.190368 -0.329218,-4.069299 -2.31727,-6.194687 -4.388785,-4.691967 -13.060624,-4.109921 -16.494773,1.107113 -2.482103,3.770722 -2.157368,8.112257 0.850883,11.375824 2.226496,2.415462 4.230931,3.161146 8.276003,3.078812 2.590279,-0.05272 3.042671,-0.132345 4.322312,-0.760743 z"
     id="path6294" />
  <path
     style="fill:#008000;stroke:none;stroke-width:0.251572"
     d="m 54.574743,31.869741 c -2.909838,-1.389694 -4.477527,-3.653973 -4.473272,-6.460936 0.0032,-2.097024 0.721608,-3.644171 2.387851,-5.142266 1.660683,-1.493097 3.186433,-1.979138 5.827563,-1.85642 2.436819,0.113225 3.594165,0.597994 5.159138,2.160969 1.460311,1.458446 2.046183,2.821808 2.053043,4.777566 0.0096,2.72287 -1.4046,4.889679 -4.090934,6.268264 -1.044748,0.536149 -1.748375,0.692637 -3.450711,0.767446 -1.860068,0.08174 -2.304209,0.01477 -3.412678,-0.514623 z"
     id="path6333" />
</svg>
