<?xml version="1.0" encoding="UTF-8" standalone="no"?>
<svg
   width="100"
   height="50"
   version="1.1"
   id="svg1638"
   sodipodi:docname="XNOR.svg"
   inkscape:version="1.1.1 (3bf5ae0d25, 2021-09-20, custom)"
   xmlns:inkscape="http://www.inkscape.org/namespaces/inkscape"
   xmlns:sodipodi="http://sodipodi.sourceforge.net/DTD/sodipodi-0.dtd"
   xmlns="http://www.w3.org/2000/svg"
   xmlns:svg="http://www.w3.org/2000/svg">
  <defs
     id="defs1642" />
  <sodipodi:namedview
     id="namedview1640"
     pagecolor="#ffffff"
     bordercolor="#666666"
     borderopacity="1.0"
     inkscape:pageshadow="2"
     inkscape:pageopacity="0.0"
     inkscape:pagecheckerboard="0"
     showgrid="false"
     inkscape:zoom="12.45"
     inkscape:cx="67.349398"
     inkscape:cy="25.02008"
     inkscape:window-width="1878"
     inkscape:window-height="1010"
     inkscape:window-x="1939"
     inkscape:window-y="47"
     inkscape:window-maximized="1"
     inkscape:current-layer="svg1638" />
  <path
     fill="none"
     stroke="#000000"
     stroke-width="2"
     d="m 78.333332,25 8.604947,0.0051 v 0 M 30.385717,15 8.2457761,15.069668 M 31.362091,35 8.6156932,35.104902"
     id="path1628"
     sodipodi:nodetypes="ccccccc" />
  <g
     fill-rule="evenodd"
     id="g1634">
    <path
       d="M24.25 42.000005c-1.597374 2.6444-2.25 3-2.25 3h-3.65625l2-2.4375S26 35.562451 26 25c0-10.562451-5.65625-17.5625-5.65625-17.5625l-2-2.4375H22c.78125.9375 1.421875 1.65625 2.21875 3C26.091469 11.099815 29 17.026646 29 25c0 7.95065-2.896697 13.879425-4.75 17.000005z"
       id="path1630" />
    <path
       d="M24.09375 5l2 2.4375S31.75 14.437549 31.75 25s-5.65625 17.5625-5.65625 17.5625l-2 2.4375H41.25c2.408076.000001 7.689699.024514 13.625-2.40625s12.536536-7.343266 17.6875-16.875L71.25 25l1.3125-.71875C62.259387 5.21559 46.006574 5 41.25 5H24.09375zm5.875 3H41.25c4.684173 0 18.28685-.130207 27.96875 17C64.451964 33.429075 58.697469 37.68391 53.5 39.8125 48.139339 42.007924 43.658075 42.000001 41.25 42H30c1.873588-3.108434 4.75-9.04935 4.75-17 0-7.973354-2.908531-13.900185-4.78125-17z"
       id="path1632" />
  </g>
  <path
     fill="none"
     stroke="#000"
     stroke-width="3"
     d="M79 25a4 4 0 1 1-8 0 4 4 0 1 1 8 0z"
     id="path1636" />
  <ellipse
     style="fill:#000000;fill-opacity:1;fill-rule:evenodd"
     id="path177-3"
     cx="12.117455"
     cy="34.866341"
     rx="3.9862022"
     ry="4.0763268" />
  <ellipse
     style="fill:#000000;fill-opacity:1;fill-rule:evenodd"
     id="path177-3-3"
     cx="12.159204"
     cy="14.975286"
     rx="3.9862022"
     ry="4.0763268" />
  <ellipse
     style="fill:#000000;fill-opacity:1;fill-rule:evenodd"
     id="path177-3-5"
     cx="83.935287"
     cy="24.827366"
     rx="3.9862022"
     ry="4.0763268" />
</svg>
