<?xml version="1.0" encoding="UTF-8" standalone="no"?>
<svg
   width="100"
   height="50"
   version="1.1"
   id="svg1638"
   sodipodi:docname="XNOR.svg"
   inkscape:version="1.1.1 (3bf5ae0d25, 2021-09-20, custom)"
   xmlns:inkscape="http://www.inkscape.org/namespaces/inkscape"
   xmlns:sodipodi="http://sodipodi.sourceforge.net/DTD/sodipodi-0.dtd"
   xmlns="http://www.w3.org/2000/svg"
   xmlns:svg="http://www.w3.org/2000/svg">
  <defs
     id="defs1642" />
  <sodipodi:namedview
     id="namedview1640"
     pagecolor="#ffffff"
     bordercolor="#666666"
     borderopacity="1.0"
     inkscape:pageshadow="2"
     inkscape:pageopacity="0.0"
     inkscape:pagecheckerboard="0"
     showgrid="false"
     inkscape:zoom="12.45"
     inkscape:cx="51.686747"
     inkscape:cy="25.02008"
     inkscape:window-width="1878"
     inkscape:window-height="1010"
     inkscape:window-x="1939"
     inkscape:window-y="47"
     inkscape:window-maximized="1"
     inkscape:current-layer="svg1638" />
  <path
     fill="none"
     stroke="#000000"
     stroke-width="2"
     d="m 78.333332,25 8.604947,0.0051 v 0 M 30.189296,8.1325281 8.3231363,8.0970632 M 30,42 6.3770707,42.154296"
     id="path1628"
     sodipodi:nodetypes="ccccccc" />
  <g
     fill-rule="evenodd"
     id="g1634">
    <path
       d="M24.25 42.000005c-1.597374 2.6444-2.25 3-2.25 3h-3.65625l2-2.4375S26 35.562451 26 25c0-10.562451-5.65625-17.5625-5.65625-17.5625l-2-2.4375H22c.78125.9375 1.421875 1.65625 2.21875 3C26.091469 11.099815 29 17.026646 29 25c0 7.95065-2.896697 13.879425-4.75 17.000005z"
       id="path1630" />
    <path
       d="M24.09375 5l2 2.4375S31.75 14.437549 31.75 25s-5.65625 17.5625-5.65625 17.5625l-2 2.4375H41.25c2.408076.000001 7.689699.024514 13.625-2.40625s12.536536-7.343266 17.6875-16.875L71.25 25l1.3125-.71875C62.259387 5.21559 46.006574 5 41.25 5H24.09375zm5.875 3H41.25c4.684173 0 18.28685-.130207 27.96875 17C64.451964 33.429075 58.697469 37.68391 53.5 39.8125 48.139339 42.007924 43.658075 42.000001 41.25 42H30c1.873588-3.108434 4.75-9.04935 4.75-17 0-7.973354-2.908531-13.900185-4.78125-17z"
       id="path1632" />
  </g>
  <path
     fill="none"
     stroke="#000"
     stroke-width="3"
     d="M79 25a4 4 0 1 1-8 0 4 4 0 1 1 8 0z"
     id="path1636" />
  <ellipse
     style="fill:#000000;fill-opacity:1;fill-rule:evenodd"
     id="path177-3"
     cx="8.6499319"
     cy="41.956753"
     rx="3.9862022"
     ry="4.0763268" />
  <ellipse
     style="fill:#000000;fill-opacity:1;fill-rule:evenodd"
     id="path177-3-3"
     cx="8.8321457"
     cy="8.4101658"
     rx="3.9862022"
     ry="4.0763268" />
  <ellipse
     style="fill:#000000;fill-opacity:1;fill-rule:evenodd"
     id="path177-3-5"
     cx="85.434036"
     cy="25.078047"
     rx="3.9862022"
     ry="4.0763268" />
  <path
     style="fill:#e6e6e6;stroke:none;stroke-width:0.0803213"
     d="m 30.160643,41.879928 c 0,-0.0313 0.158088,-0.33155 0.351307,-0.667216 1.168448,-2.029863 2.267777,-4.654584 2.981178,-7.117762 2.029151,-7.006096 1.638139,-14.611084 -1.098184,-21.35917 -0.405662,-1.000407 -1.454448,-3.1632059 -1.946739,-4.0145502 -0.202336,-0.34991 -0.367884,-0.6481028 -0.367884,-0.6626507 0,-0.066984 13.110599,-0.014697 14.176707,0.05654 2.167747,0.144847 3.659459,0.3752208 5.542169,0.8559097 6.689711,1.7080002 12.301764,5.7392862 16.863242,12.1133082 1.050658,1.468147 2.454027,3.707833 2.454027,3.916469 0,0.131467 -0.78565,1.438331 -1.629199,2.710037 -2.350814,3.544012 -4.972037,6.375364 -7.985626,8.625792 -3.857306,2.880481 -8.228935,4.643408 -13.305119,5.365495 -1.160024,0.165013 -1.561189,0.174495 -8.626241,0.203886 -4.075301,0.01695 -7.409638,0.0052 -7.409638,-0.02609 z"
     id="path4905" />
  <path
     style="fill:#e6e6e6;stroke:none;stroke-width:0.0803213"
     d="m 30.240964,41.809855 c 0,-0.0266 0.157893,-0.327226 0.350873,-0.668063 0.542805,-0.958687 0.851413,-1.59948 0.796676,-1.654216 -0.0274,-0.0274 -0.01172,-0.04982 0.03485,-0.04982 0.06763,0 0.536233,-0.96169 0.547359,-1.123313 0.0016,-0.02274 0.04843,-0.12344 0.104142,-0.223777 0.294371,-0.530155 1.364313,-3.524652 1.484993,-4.156116 0.01676,-0.08769 0.05257,-0.213661 0.07958,-0.279927 0.07474,-0.183354 0.384639,-1.448761 0.416542,-1.700845 0.01548,-0.122294 0.04647,-0.252015 0.06888,-0.288267 0.0224,-0.03625 0.05989,-0.208953 0.08331,-0.383782 0.02341,-0.174828 0.09606,-0.60841 0.16144,-0.963516 0.441169,-2.396234 0.542585,-6.956874 0.204443,-9.19371 -0.04341,-0.287149 -0.10024,-0.717857 -0.126291,-0.957129 -0.02605,-0.239273 -0.150869,-0.92602 -0.277372,-1.526105 -0.126502,-0.600085 -0.247705,-1.192859 -0.269339,-1.317276 -0.118824,-0.683349 -1.18772,-4.052251 -1.316841,-4.150366 -0.02974,-0.0226 -0.06605,-0.110225 -0.08068,-0.194722 -0.04614,-0.266486 -0.703298,-1.688337 -1.523122,-3.2955007 l -0.791111,-1.5508762 0.917176,-0.05648 c 0.907033,-0.055856 11.363592,0.00811 13.070246,0.079957 0.751404,0.031632 1.433327,0.1002702 3.172691,0.3193447 0.847445,0.1067366 3.066727,0.6652254 4.287393,1.0789354 0.392203,0.132926 0.741526,0.2241136 0.776272,0.202639 0.03475,-0.021475 0.0753,-0.010635 0.09012,0.024087 0.01482,0.034723 0.370314,0.2028829 0.789993,0.3736898 1.079516,0.439357 2.56076,1.166615 3.453802,1.69574 0.419672,0.248654 0.799059,0.458125 0.843083,0.46549 0.04402,0.0074 0.116319,0.05287 0.160655,0.101124 0.04434,0.04825 0.435903,0.332149 0.870147,0.63088 2.907112,1.999895 5.862376,4.98208 8.058355,8.131765 0.286837,0.411409 0.557104,0.748016 0.600592,0.748016 0.04349,0 0.0581,0.03392 0.03248,0.07539 -0.02562,0.04146 0.01742,0.111208 0.09566,0.154992 0.07824,0.04378 0.129495,0.102519 0.113905,0.130522 -0.04534,0.08143 0.551117,1.004563 0.649065,1.004563 0.04883,0 0.06722,0.02157 0.04086,0.04793 -0.04286,0.04286 0.530822,1.057629 0.654035,1.156892 0.04966,0.04 0.07964,0.130864 0.147868,0.448009 0.04199,0.195173 -0.470805,1.095687 -1.528678,2.684521 -1.565468,2.351197 -2.847524,3.929411 -4.667866,5.746149 -1.550586,1.547518 -3.036421,2.772576 -4.624366,3.812749 -0.596385,0.390658 -1.14759,0.767191 -1.2249,0.836739 -0.07731,0.06955 -0.149861,0.117415 -0.161228,0.106371 -0.02535,-0.02463 -2.332844,1.151561 -2.388972,1.217721 -0.02209,0.02604 -0.09438,0.05925 -0.160643,0.07381 -0.06627,0.01456 -0.608434,0.219279 -1.204819,0.454938 -1.927264,0.76155 -4.053594,1.33278 -6.48898,1.74324 -0.98346,0.165752 -1.30279,0.173266 -8.671663,0.204034 -4.207831,0.01757 -7.650602,0.01018 -7.650602,-0.01642 z"
     id="path4981" />
  <path
     style="fill:#e6e6e6;stroke:none;stroke-width:0.0803213"
     d="m 74.457831,27.399223 c -0.4012,-0.105947 -0.903365,-0.396296 -1.202142,-0.695073 -0.442499,-0.442499 -0.626589,-0.875632 -0.66821,-1.572189 -0.03209,-0.536996 -0.01023,-0.669574 0.180453,-1.094467 0.268349,-0.597961 0.664126,-0.992258 1.276807,-1.272035 0.414002,-0.18905 0.544091,-0.210423 1.084337,-0.178147 0.968039,0.05784 1.619966,0.488668 2.074865,1.371196 0.286902,0.556607 0.310203,1.43487 0.05293,1.995099 -0.387128,0.843003 -1.208425,1.424044 -2.091692,1.479805 -0.256512,0.01619 -0.57482,8.09e-4 -0.70735,-0.03419 z"
     id="path5057" />
  <path
     style="fill:#ececec;stroke:none;stroke-width:0.0803213"
     d="m 30.240964,41.812232 c 0,-0.02624 0.255768,-0.514 0.568373,-1.083913 0.312605,-0.569913 0.576237,-1.089791 0.58585,-1.155284 0.0096,-0.06549 0.05374,-0.167905 0.09806,-0.227583 0.04432,-0.05968 0.164851,-0.307299 0.267846,-0.550271 0.102995,-0.242972 0.251237,-0.568273 0.329427,-0.722892 0.306132,-0.60537 1.341641,-3.529222 1.479218,-4.176707 0.02347,-0.110441 0.130255,-0.514937 0.237306,-0.898879 0.107052,-0.383942 0.211462,-0.822906 0.232023,-0.975476 0.02056,-0.152571 0.05744,-0.309854 0.08195,-0.349518 0.02451,-0.03966 0.06375,-0.215156 0.08718,-0.389985 0.02344,-0.174828 0.09665,-0.64317 0.162684,-1.04076 0.442797,-2.665895 0.531106,-6.69461 0.198951,-9.076305 -0.04313,-0.309237 -0.09735,-0.7249 -0.120488,-0.923695 -0.06989,-0.600354 -0.4289,-2.389347 -0.685047,-3.413655 -0.251397,-1.005314 -1.082066,-3.579781 -1.178584,-3.652747 -0.03058,-0.02312 -0.06544,-0.101906 -0.07747,-0.175085 -0.042,-0.255443 -0.720017,-1.726342 -1.51817,-3.2935443 l -0.804268,-1.5792079 0.92207,-0.057613 c 0.876353,-0.054757 12.204118,0.019341 13.390116,0.087588 0.47843,0.027531 1.40123,0.1296013 2.811245,0.3109508 0.832584,0.107083 2.814467,0.595486 4.110685,1.0130119 0.405456,0.1306016 0.803046,0.2495389 0.883534,0.2643052 0.08049,0.014766 0.272849,0.086064 0.427468,0.1584391 0.154618,0.072375 0.823293,0.3689922 1.485943,0.6591472 0.662651,0.290156 1.692772,0.805593 2.289157,1.145417 0.596386,0.339823 1.111446,0.609609 1.144578,0.599524 0.03313,-0.01009 0.06024,0.0125 0.06024,0.0502 0,0.0377 0.262049,0.24229 0.58233,0.454655 0.726874,0.481959 1.724259,1.230502 2.329317,1.748167 0.254016,0.217326 0.461847,0.375411 0.461847,0.351299 0,-0.02411 0.643465,0.595805 1.429922,1.377595 1.54878,1.539588 2.752588,2.936484 3.889873,4.513804 0.398156,0.552209 0.77316,1.043734 0.833344,1.092279 0.06018,0.04855 0.08674,0.110947 0.05902,0.138672 -0.02772,0.02772 0.009,0.0732 0.08157,0.101053 0.07259,0.02785 0.131978,0.09244 0.131978,0.143525 0,0.109276 0.558996,0.961981 0.65624,1.001044 0.03666,0.01473 0.06665,0.06823 0.06665,0.118898 0,0.08569 0.535664,1.009915 0.637141,1.099308 0.04601,0.04053 0.08021,0.147812 0.140841,0.441767 0.04102,0.198901 -0.5337,1.207465 -1.596773,2.802129 -1.885953,2.829025 -4.098245,5.375779 -6.269563,7.217415 -0.519076,0.440262 -0.943775,0.838864 -0.943775,0.885781 0,0.04692 -0.02242,0.06289 -0.04981,0.03549 -0.0274,-0.0274 -0.326638,0.160918 -0.664982,0.418477 -0.338343,0.257559 -1.047856,0.75169 -1.576694,1.098069 -0.528839,0.346378 -0.973573,0.658062 -0.988298,0.692633 -0.01473,0.03457 -0.06434,0.06285 -0.110258,0.06285 -0.09246,0 -2.329176,1.117738 -2.393089,1.195879 -0.02209,0.02701 -0.07631,0.05537 -0.120482,0.06304 -0.04418,0.0077 -0.586346,0.213105 -1.20482,0.456534 -1.9033,0.749133 -3.807787,1.274402 -6.025984,1.662003 -0.529082,0.09245 -1.052329,0.187642 -1.162771,0.211538 -0.278404,0.06024 -15.66265,0.129614 -15.66265,0.07063 z"
     id="path5133" />
  <path
     style="fill:#ececec;stroke:none;stroke-width:0.0803213"
     d="m 74.848954,27.385098 c -0.462805,-0.03606 -0.660888,-0.09772 -1.032027,-0.321285 -0.836649,-0.503971 -1.158102,-1.080934 -1.161035,-2.083893 -0.002,-0.700765 0.145355,-1.095799 0.594323,-1.592754 0.450038,-0.498137 0.997418,-0.736564 1.691006,-0.736564 0.760018,0 1.269828,0.182726 1.69441,0.607307 0.475164,0.475165 0.690119,0.93401 0.735825,1.570704 0.04929,0.686567 -0.125377,1.222761 -0.558654,1.71499 -0.31039,0.352621 -0.969104,0.765634 -1.221109,0.765634 -0.06405,0 -0.128507,0.02711 -0.143233,0.06024 -0.01472,0.03313 -0.284503,0.04016 -0.599506,0.01562 z"
     id="path5209" />
</svg>
