<?xml version="1.0" encoding="UTF-8" standalone="no"?>
<svg
   width="100"
   height="50"
   version="1.1"
   id="svg80"
   sodipodi:docname="XOR.svg"
   inkscape:version="1.1.1 (3bf5ae0d25, 2021-09-20, custom)"
   xmlns:inkscape="http://www.inkscape.org/namespaces/inkscape"
   xmlns:sodipodi="http://sodipodi.sourceforge.net/DTD/sodipodi-0.dtd"
   xmlns="http://www.w3.org/2000/svg"
   xmlns:svg="http://www.w3.org/2000/svg">
  <defs
     id="defs84" />
  <sodipodi:namedview
     id="namedview82"
     pagecolor="#ffffff"
     bordercolor="#666666"
     borderopacity="1.0"
     inkscape:pageshadow="2"
     inkscape:pageopacity="0.0"
     inkscape:pagecheckerboard="0"
     showgrid="false"
     inkscape:zoom="12.45"
     inkscape:cx="41.485944"
     inkscape:cy="25.02008"
     inkscape:window-width="1878"
     inkscape:window-height="1010"
     inkscape:window-x="1939"
     inkscape:window-y="47"
     inkscape:window-maximized="1"
     inkscape:current-layer="svg80" />
  <path
     fill="none"
     stroke="#000000"
     stroke-width="2"
     d="M 69.21875,25 H 71.25 l 8.047691,-0.01435 M 29.96875,8 7.1534968,8.0710664 M 30,42 6.0073693,42.070626"
     id="path72"
     sodipodi:nodetypes="ccccccc" />
  <g
     fill-rule="evenodd"
     id="g78">
    <path
       d="M24.25 42C22.65263 44.6444 22 45 22 45h-3.65625l2-2.4375S26 35.56245 26 25 20.34375 7.4375 20.34375 7.4375l-2-2.4375H22c.78125.9375 1.42188 1.65625 2.21875 3C26.09147 11.09981 29 17.02665 29 25c0 7.95065-2.8967 13.87942-4.75 17z"
       id="path74" />
    <path
       d="M24.09375 5l2 2.4375S31.75 14.43755 31.75 25s-5.65625 17.5625-5.65625 17.5625l-2 2.4375H41.25c2.40808 0 7.6897.02451 13.625-2.40625s12.53654-7.34327 17.6875-16.875L71.25 25l1.3125-.71875C62.25939 5.21559 46.00657 5 41.25 5H24.09375zm5.875 3H41.25c4.68417 0 18.28685-.1302 27.96875 17C64.45196 33.42907 58.69747 37.68391 53.5 39.8125 48.13934 42.00792 43.65808 42 41.25 42H30c1.87359-3.10843 4.75-9.04935 4.75-17 0-7.97335-2.90853-13.90019-4.78125-17z"
       id="path76" />
  </g>
  <ellipse
     style="fill:#000000;fill-opacity:1;fill-rule:evenodd"
     id="path177"
     cx="8.5242147"
     cy="41.789009"
     rx="3.9862022"
     ry="4.0070605" />
  <ellipse
     style="fill:#000000;fill-opacity:1;fill-rule:evenodd"
     id="path177-3"
     cx="8.6622477"
     cy="8.0821629"
     rx="3.9862022"
     ry="4.0763268" />
  <ellipse
     style="fill:#000000;fill-opacity:1;fill-rule:evenodd"
     id="path177-6"
     cx="82.669418"
     cy="24.754154"
     rx="3.9862022"
     ry="4.0763268" />
  <path
     style="fill:#f2f2f2;stroke:none;stroke-width:0.0803213"
     d="m 30.160643,41.879928 c 0,-0.0313 0.158088,-0.33155 0.351307,-0.667216 1.168448,-2.029863 2.267777,-4.654584 2.981178,-7.117762 2.029151,-7.006096 1.638139,-14.611084 -1.098184,-21.35917 -0.405662,-1.000407 -1.454448,-3.1632059 -1.946739,-4.0145502 -0.202336,-0.34991 -0.367884,-0.6481028 -0.367884,-0.6626507 0,-0.066984 13.110599,-0.014697 14.176707,0.05654 2.167747,0.144847 3.659459,0.3752208 5.542169,0.8559097 6.689711,1.7080002 12.301764,5.7392862 16.863242,12.1133082 1.050658,1.468147 2.454027,3.707833 2.454027,3.916469 0,0.131467 -0.78565,1.438331 -1.629199,2.710037 -2.350814,3.544012 -4.972037,6.375364 -7.985626,8.625792 -3.857306,2.880481 -8.228935,4.643408 -13.305119,5.365495 -1.160024,0.165013 -1.561189,0.174495 -8.626241,0.203886 -4.075301,0.01695 -7.409638,0.0052 -7.409638,-0.02609 z"
     id="path4393" />
</svg>
